<svg width="37" height="37" viewBox="0 0 37 37" fill="none" xmlns="http://www.w3.org/2000/svg">
<path d="M11.6543 13.3753L13.6512 11.3806C13.8949 11.1369 14.2212 11 14.5662 11C14.9112 11 15.2375 11.135 15.4812 11.3806L17.6318 13.5272C17.8756 13.7709 18.0125 14.099 18.0125 14.4439C18.0125 14.7908 17.8775 15.1151 17.6318 15.3607L15.9518 17.0424C16.3346 17.934 16.8845 18.7441 17.5718 19.4289C18.26 20.1207 19.0643 20.6663 19.9568 21.0525L21.6369 19.3708C21.8806 19.1271 22.2069 18.9903 22.5519 18.9903C22.722 18.9896 22.8906 19.023 23.0477 19.0883C23.2049 19.1537 23.3473 19.2497 23.4669 19.3708L25.6194 21.5174C25.8631 21.7612 26 22.0892 26 22.4342C26 22.781 25.865 23.1054 25.6194 23.351L23.6244 25.3457C23.2081 25.7619 22.6344 26 22.0456 26C21.9237 26 21.8056 25.9906 21.6856 25.97C19.2031 25.5613 16.7393 24.2396 14.75 22.2523C12.7624 20.2613 11.4424 17.7979 11.0299 15.3138C10.9118 14.6089 11.1481 13.8834 11.6543 13.3753ZM12.3593 15.0907C12.7249 17.3011 13.9137 19.5058 15.7043 21.2962C17.495 23.0866 19.6981 24.2752 21.9087 24.6408C22.1862 24.6877 22.4712 24.5939 22.6737 24.3933L24.6331 22.4342L22.5556 20.3551L20.3094 22.6048L20.2925 22.6217L19.8875 22.4717C18.6595 22.0203 17.5443 21.3072 16.6194 20.382C15.6944 19.4568 14.9816 18.3416 14.5306 17.1136L14.3806 16.7087L16.6456 14.4458L14.5681 12.3667L12.6087 14.3258C12.4062 14.5283 12.3124 14.8133 12.3593 15.0907Z" fill="currentColor"/>
<circle cx="18.5" cy="18.5" r="18" stroke="currentColor"/>
</svg>
