<svg width="230" height="93" viewBox="0 0 230 93" fill="none" xmlns="http://www.w3.org/2000/svg">
<rect width="230" height="93" fill="white"/>
<path d="M47.968 31.36C48.7413 31.3333 50.208 31.32 52.368 31.32C54.5546 31.32 56.0346 31.3333 56.808 31.36C59.5546 31.4133 61.7146 32.1467 63.288 33.56C64.8613 34.9733 65.648 36.9333 65.648 39.44C65.648 41.2267 65.248 42.8133 64.448 44.2C63.648 45.56 62.5146 46.6133 61.048 47.36C59.608 48.1067 57.968 48.48 56.128 48.48H53.528V58H47.968V31.36ZM55.888 43.76C57.1946 43.76 58.208 43.3867 58.928 42.64C59.6746 41.8933 60.048 40.88 60.048 39.6C60.048 37.2533 58.7546 36.08 56.168 36.08H53.528V43.76H55.888ZM75.1342 58.6C73.0009 58.6 71.3076 57.6933 70.0542 55.88C68.8009 54.0667 68.1742 51.6 68.1742 48.48C68.1742 44.6933 69.1342 41.8133 71.0542 39.84C72.9742 37.84 75.7342 36.84 79.3342 36.84C81.3609 36.84 83.7342 37.16 86.4542 37.8V58H81.0942L81.2142 54.72H81.0542C80.3609 55.9733 79.5076 56.9333 78.4942 57.6C77.5076 58.2667 76.3876 58.6 75.1342 58.6ZM76.3342 53.68C77.1609 53.68 77.9742 53.24 78.7742 52.36C79.5742 51.48 80.3209 50.3067 81.0142 48.84V42.12C80.1609 41.88 79.3076 41.76 78.4542 41.76C76.8542 41.76 75.6409 42.3067 74.8142 43.4C74.0142 44.4933 73.6142 46.1067 73.6142 48.24C73.6142 49.92 73.8542 51.2533 74.3342 52.24C74.8142 53.2 75.4809 53.68 76.3342 53.68ZM91.9505 37.4H97.5905V40.76H97.9105C98.6838 39.4 99.4438 38.4 100.19 37.76C100.964 37.12 101.924 36.8 103.07 36.8C103.55 36.8 103.95 36.8533 104.27 36.96L103.67 43.04C102.977 42.8533 102.417 42.76 101.99 42.76C101.377 42.76 100.83 42.88 100.35 43.12C99.8971 43.36 99.4838 43.68 99.1105 44.08C98.7638 44.48 98.2571 45.0933 97.5905 45.92V58H91.9505V37.4ZM115.953 58.6C114.033 58.6 112.54 58.12 111.473 57.16C110.433 56.1733 109.913 54.7867 109.913 53V42.24H106.713V37.4H109.913V33C111.806 32.68 113.673 32.44 115.513 32.28V37.4H120.713V42.24H115.513V51.96C115.513 52.52 115.673 52.9467 115.993 53.24C116.34 53.5333 116.82 53.68 117.433 53.68C118.18 53.68 119.033 53.5067 119.993 53.16L121.233 57.4C119.526 58.2 117.766 58.6 115.953 58.6ZM125.229 37.4H130.749V40.96C131.602 39.5467 132.589 38.5067 133.709 37.84C134.829 37.1733 136.136 36.84 137.629 36.84C139.842 36.84 141.576 37.5067 142.829 38.84C144.082 40.1467 144.709 41.9733 144.709 44.32V58H139.069V45.2C139.069 44.1333 138.802 43.3067 138.269 42.72C137.736 42.1067 137.016 41.8 136.109 41.8C135.042 41.8 134.029 42.2 133.069 43C132.109 43.8 131.376 44.8133 130.869 46.04V58H125.229V37.4ZM159.636 58.6C156.303 58.6 153.676 57.64 151.756 55.72C149.863 53.8 148.916 51.1333 148.916 47.72C148.916 45.5067 149.33 43.5867 150.156 41.96C150.983 40.3067 152.143 39.04 153.636 38.16C155.156 37.28 156.93 36.84 158.956 36.84C161.943 36.84 164.236 37.8 165.836 39.72C167.436 41.64 168.236 44.4133 168.236 48.04C168.236 48.6533 168.223 49.1067 168.196 49.4H154.596C154.863 50.8133 155.476 51.8933 156.436 52.64C157.396 53.36 158.69 53.72 160.316 53.72C161.303 53.72 162.33 53.6 163.396 53.36C164.463 53.0933 165.396 52.7467 166.196 52.32L167.116 56.84C166.05 57.4 164.863 57.8267 163.556 58.12C162.276 58.44 160.97 58.6 159.636 58.6ZM162.836 45.16C162.756 44.0133 162.356 43.1067 161.636 42.44C160.916 41.7467 159.956 41.4 158.756 41.4C157.61 41.4 156.663 41.7333 155.916 42.4C155.196 43.0667 154.743 43.9867 154.556 45.16H162.836ZM172.575 37.4H178.215V40.76H178.535C179.309 39.4 180.069 38.4 180.815 37.76C181.589 37.12 182.549 36.8 183.695 36.8C184.175 36.8 184.575 36.8533 184.895 36.96L184.295 43.04C183.602 42.8533 183.042 42.76 182.615 42.76C182.002 42.76 181.455 42.88 180.975 43.12C180.522 43.36 180.109 43.68 179.735 44.08C179.389 44.48 178.882 45.0933 178.215 45.92V58H172.575V37.4Z" fill="#EADACB"/>
</svg>
