<svg width="43" height="43" viewBox="0 0 43 43" fill="none" xmlns="http://www.w3.org/2000/svg">
<path d="M21.8319 41C32.7848 41 41.6639 32.0457 41.6639 21C41.6639 9.95431 32.7848 1 21.8319 1M21.8319 41C10.8791 41 2 32.0457 2 21M21.8319 41C27.4012 41 31.916 32.0457 31.916 21C31.916 9.95431 27.4012 1 21.8319 1M21.8319 41C16.2627 41 11.7479 32.0457 11.7479 21C11.7479 9.95431 16.2627 1 21.8319 1M2 21C2 9.95431 10.8791 1 21.8319 1M2 21H42M9.39496 5.23729C9.39496 5.23729 22.5601 11.339 34.2689 5.23729M34.2689 36.7627C34.2689 36.7627 21.1037 30.661 9.39496 36.7627" stroke="black" stroke-width="2"/>
</svg>
