<svg width="883" height="624" viewBox="0 0 883 624" fill="none" xmlns="http://www.w3.org/2000/svg">
  <path class="circle" d="M588.844 323C588.844 350.528 566.528 372.844 539 372.844C511.472 372.844 489.156 350.528 489.156 323C489.156 295.472 511.472 273.156 539 273.156C566.528 273.156 588.844 295.472 588.844 323Z" stroke="#D8C3A4" stroke-width="3" />
  <path class="circle" d="M638.688 323C638.688 378.056 594.056 422.688 539 422.688C483.944 422.688 439.312 378.056 439.312 323C439.312 267.944 483.944 223.312 539 223.312C594.056 223.312 638.688 267.944 638.688 323Z" stroke="#D8C3A4" stroke-width="3" />
  <path class="circle" d="M688.531 323C688.531 405.584 621.584 472.531 539 472.531C456.416 472.531 389.469 405.584 389.469 323C389.469 240.416 456.416 173.469 539 173.469C621.584 173.469 688.531 240.416 688.531 323Z" stroke="#D8C3A4" stroke-width="3" />
  <path class="circle" d="M738.375 323C738.375 433.112 649.112 522.375 539 522.375C428.888 522.375 339.625 433.112 339.625 323C339.625 212.888 428.888 123.625 539 123.625C649.112 123.625 738.375 212.888 738.375 323Z" stroke="#D8C3A4" stroke-width="3" />
  <path class="circle" d="M788.219 323C788.219 460.64 676.64 572.219 539 572.219C401.36 572.219 289.781 460.64 289.781 323C289.781 185.36 401.36 73.7812 539 73.7812C676.64 73.7812 788.219 185.36 788.219 323Z" stroke="#D8C3A4" stroke-width="3" />
  <path class="circle" d="M833.078 323C833.078 485.415 701.415 617.078 539 617.078C376.585 617.078 244.922 485.415 244.922 323C244.922 160.585 376.585 28.9219 539 28.9219C701.415 28.9219 833.078 160.585 833.078 323Z" stroke="#D8C3A4" stroke-width="3" />
  <path class="circle" d="M560 323C546 323 539 316 539 302C539 316 532 323 518 323C532 323 539 330 539 344C539 330 546 323 560 323Z" fill="#D8C3A4" />
  <path class="star" d="M137 473C107 473 92 457.667 92 427C92 457.667 77 473 47 473C77 473 92 488.333 92 519C92 488.333 107 473 137 473Z" fill="#E93A3F" />
  <path class="star" d="M849 6L855.8 28.2221L878.445 23L862.6 40L878.445 57L855.8 51.7779L849 74L842.2 51.7779L819.555 57L835.4 40L819.555 23L842.2 28.2221L849 6Z" stroke="#E93A3F" stroke-width="3" />
  <path class="star" d="M17 514C17 514.003 17 514.006 17 514.009C17.0028 525.67 22.6694 531.5 34 531.5C22.6667 531.5 17 537.333 17 549C17 537.333 11.3333 531.5 -7.64949e-07 531.5C11.3306 531.5 16.9972 525.67 17 514.009C17 514.006 17 514.003 17 514Z" fill="#D8C3A4" />
</svg>
