<svg width="160" height="73" viewBox="0 0 160 73" fill="none" xmlns="http://www.w3.org/2000/svg">
<path d="M0 46.4545H6.95556V9.1536H0.382174V0H17.7329V46.4545H24.6884V55.6844H0V46.4545Z" fill="#3B3738"/>
<path d="M49.0604 56.8286C45.0857 56.8286 41.5698 55.9641 38.5124 54.2351C35.5059 52.5061 33.1619 50.0906 31.4804 46.9885C29.7988 43.8356 28.958 40.1996 28.958 36.0805C28.958 31.9613 29.7733 28.3507 31.4039 25.2487C33.0855 22.0958 35.4295 19.6548 38.4359 17.9258C41.4933 16.1968 45.0093 15.3323 48.9839 15.3323C52.9585 15.3323 56.449 16.1968 59.4555 17.9258C62.5129 19.604 64.8569 21.9941 66.4875 25.0961C68.169 28.1982 69.0098 31.7834 69.0098 35.8516C69.0098 39.9707 68.169 43.6322 66.4875 46.8359C64.8569 49.9889 62.5129 52.4552 59.4555 54.2351C56.449 55.9641 52.984 56.8286 49.0604 56.8286ZM48.9839 47.5225C51.7356 47.5225 53.9267 46.48 55.5573 44.395C57.2389 42.2591 58.0797 39.4622 58.0797 36.0042C58.0797 32.5461 57.2389 29.8001 55.5573 27.7659C53.9267 25.6809 51.7356 24.6385 48.9839 24.6385C46.2323 24.6385 44.0157 25.6809 42.3341 27.7659C40.7035 29.8001 39.8882 32.5461 39.8882 36.0042C39.8882 39.4622 40.7035 42.2591 42.3341 44.395C44.0157 46.48 46.2323 47.5225 48.9839 47.5225Z" fill="#3B3738"/>
<path d="M90.5095 73C85.9743 73 81.5411 72.4152 77.2098 71.2456L79.2736 61.7868C84.1654 63.2107 88.2419 63.9227 91.5031 63.9227C94.1019 63.9227 96.0892 63.5158 97.465 62.7022C98.8918 61.8885 99.8855 60.6172 100.446 58.8882C101.057 57.1592 101.414 54.7945 101.516 51.7941H101.287C99.86 53.4215 98.2039 54.6674 96.3185 55.5319C94.4331 56.3964 92.3694 56.8286 90.1273 56.8286C85.6431 56.8286 82.1271 55.1505 79.5793 51.7941C77.0824 48.387 75.834 43.683 75.834 37.6823C75.834 30.4103 77.6939 24.8673 81.4137 21.0533C85.1845 17.2393 90.5604 15.3323 97.5415 15.3323C101.567 15.3323 106.357 15.9425 111.911 17.163C112.013 27.6388 112.064 35.5211 112.064 40.8098C112.064 45.5392 112.039 49.0989 111.988 51.489C111.886 58.7102 110.051 64.1007 106.484 67.6604C102.968 71.2201 97.6434 73 90.5095 73ZM92.9554 47.4462C94.535 47.4462 96.0383 46.8614 97.465 45.6917C98.9428 44.5221 100.242 42.8694 101.363 40.7335L101.287 25.4013C99.6052 24.9436 97.9746 24.7147 96.395 24.7147C93.1847 24.7147 90.7388 25.7572 89.0572 27.8422C87.4266 29.9272 86.6113 32.953 86.6113 36.9195C86.6113 40.225 87.1463 42.8185 88.2164 44.7001C89.3375 46.5308 90.9171 47.4462 92.9554 47.4462Z" fill="#3B3738"/>
<path d="M140.051 56.8286C136.076 56.8286 132.56 55.9641 129.503 54.2351C126.496 52.5061 124.152 50.0906 122.471 46.9885C120.789 43.8356 119.948 40.1996 119.948 36.0805C119.948 31.9613 120.764 28.3507 122.394 25.2487C124.076 22.0958 126.42 19.6548 129.426 17.9258C132.483 16.1968 135.999 15.3323 139.974 15.3323C143.949 15.3323 147.439 16.1968 150.446 17.9258C153.503 19.604 155.847 21.9941 157.478 25.0961C159.159 28.1982 160 31.7834 160 35.8516C160 39.9707 159.159 43.6322 157.478 46.8359C155.847 49.9889 153.503 52.4552 150.446 54.2351C147.439 55.9641 143.974 56.8286 140.051 56.8286ZM139.974 47.5225C142.726 47.5225 144.917 46.48 146.547 44.395C148.229 42.2591 149.07 39.4622 149.07 36.0042C149.07 32.5461 148.229 29.8001 146.547 27.7659C144.917 25.6809 142.726 24.6385 139.974 24.6385C137.222 24.6385 135.006 25.6809 133.324 27.7659C131.694 29.8001 130.878 32.5461 130.878 36.0042C130.878 39.4622 131.694 42.2591 133.324 44.395C135.006 46.48 137.222 47.5225 139.974 47.5225Z" fill="#3B3738"/>
</svg>
