<svg width="43" height="43" viewBox="0 0 43 43" fill="none" xmlns="http://www.w3.org/2000/svg">
<path d="M41 22C41 33.0457 32.0457 42 21 42C9.95431 42 1 33.0457 1 22C1 10.9543 9.95431 2 21 2C32.0457 2 41 10.9543 41 22Z" stroke="black" stroke-width="2"/>
<path d="M27.7797 22C27.7797 25.7443 24.7443 28.7797 21 28.7797C17.2557 28.7797 14.2203 25.7443 14.2203 22C14.2203 18.2557 17.2557 15.2203 21 15.2203C24.7443 15.2203 27.7797 18.2557 27.7797 22Z" stroke="black" stroke-width="2"/>
<path d="M34.5593 22C34.5593 29.4886 28.4886 35.5593 21 35.5593C13.5114 35.5593 7.44068 29.4886 7.44068 22C7.44068 14.5114 13.5114 8.44068 21 8.44068C28.4886 8.44068 34.5593 14.5114 34.5593 22Z" stroke="black" stroke-width="2"/>
</svg>
