<svg width="812" height="500" viewBox="0 0 812 500" fill="none" xmlns="http://www.w3.org/2000/svg">
<g clip-path="url(#clip0_242_218)">
<path d="M812 249.895C812 387.879 699.847 499.738 561.5 499.738C423.153 499.738 311 387.879 311 249.895C311 111.911 423.153 0.0524902 561.5 0.0524902C699.847 0.0524902 812 111.911 812 249.895Z" stroke="black"/>
<path d="M603.958 249.895C603.958 273.282 584.949 292.241 561.5 292.241C538.051 292.241 519.042 273.282 519.042 249.895C519.042 226.508 538.051 207.549 561.5 207.549C584.949 207.549 603.958 226.508 603.958 249.895Z" stroke="black"/>
<path d="M646.415 249.895C646.415 296.669 608.397 334.587 561.5 334.587C514.603 334.587 476.585 296.669 476.585 249.895C476.585 203.121 514.603 165.203 561.5 165.203C608.397 165.203 646.415 203.121 646.415 249.895Z" stroke="black"/>
<path d="M688.873 249.895C688.873 320.056 631.846 376.934 561.5 376.934C491.154 376.934 434.127 320.056 434.127 249.895C434.127 179.734 491.154 122.856 561.5 122.856C631.846 122.856 688.873 179.734 688.873 249.895Z" stroke="black"/>
<path d="M731.331 249.895C731.331 343.444 655.295 419.28 561.5 419.28C467.705 419.28 391.669 343.444 391.669 249.895C391.669 156.346 467.705 80.5103 561.5 80.5103C655.295 80.5103 731.331 156.346 731.331 249.895Z" stroke="black"/>
<path d="M773.788 249.895C773.788 366.831 678.744 461.626 561.5 461.626C444.257 461.626 349.212 366.831 349.212 249.895C349.212 132.959 444.257 38.1641 561.5 38.1641C678.744 38.1641 773.788 132.959 773.788 249.895Z" stroke="black"/>
<path d="M224 127.717C218.667 127.717 216 125.057 216 119.738C216 125.057 213.333 127.717 208 127.717C213.333 127.717 216 130.376 216 135.696C216 130.376 218.667 127.717 224 127.717Z" fill="black"/>
<path d="M203 99C187.667 99 180 91.3333 180 76C180 91.3333 172.333 99 157 99C172.33 99 179.996 106.663 180 121.989C180.004 106.663 187.67 99 203 99Z" fill="black"/>
<path fill-rule="evenodd" clip-rule="evenodd" d="M7.49122 286.488C9.81768 287.509 13.6059 290.385 18.7984 295.607C19.0689 295.812 19.4437 295.883 19.6521 295.615C19.8605 295.347 19.9336 294.977 19.663 294.771C14.3353 289.447 10.5315 286.452 7.95002 285.344C6.65927 284.791 5.53491 284.576 4.62359 285.057C3.71226 285.537 3.35766 286.546 3.2581 287.643C3.15854 288.74 3.34511 290.16 3.81782 291.905C4.27498 293.531 4.89854 295.496 5.65738 297.564C7.29482 301.685 9.77512 306.659 12.75 311.689C18.6996 321.748 26.856 332.844 35.1291 340.191C39.2657 343.865 43.5329 346.679 47.6135 348.073C51.6942 349.466 55.6924 349.305 59.1713 347.044C66.0094 342.538 66.8992 334.475 64.6554 325.738C64.3802 324.57 63.9852 323.417 63.5747 322.146C66.786 323.412 69.9196 324.087 72.8246 323.948C75.4745 323.722 77.7917 322.817 79.8648 320.981C81.8181 319.161 83.5428 316.527 84.5289 312.906C85.9007 308.513 85.9086 303.936 85.1825 299.335C88.1963 300.025 91.2366 299.989 93.8244 299.29C97.9377 298.15 101.188 295.077 102.586 289.957C103.484 286.589 103.392 283.109 102.582 279.723C105.695 279.316 108.065 276.96 109.484 272.921C110.902 268.883 111.338 262.926 110.4 254.861L113.512 257.224C113.783 257.429 114.142 257.382 114.35 257.114C114.559 256.846 114.512 256.491 114.241 256.286L109.912 252.998C109.641 252.793 109.282 252.84 109.074 253.108L105.74 257.396C105.531 257.664 105.578 258.02 105.848 258.225C106.119 258.43 106.478 258.384 106.687 258.115L109.083 255.033C109.99 262.861 109.538 268.7 108.209 272.486C106.879 276.272 104.686 278.124 102.171 278.452C101.73 276.945 101.184 275.571 100.623 274.079C98.3818 269.074 94.8393 264.359 91.4523 260.828C89.7511 259.004 88.0965 257.534 86.4729 256.301C84.9847 255.171 83.5276 254.278 82.3877 253.945C81.8776 253.771 81.2477 253.613 80.7688 253.675C80.2898 253.738 79.8419 254.037 79.5448 254.558C79.3675 255.062 79.31 255.551 79.523 256.246C79.6008 256.838 79.9491 257.635 80.313 258.551C83.521 265.356 87.261 270.647 91.0227 274.25C94.5139 277.647 98.058 279.592 101.338 279.525C102.132 282.792 102.328 286.138 101.415 289.388C100.106 294.255 97.168 296.927 93.518 297.885C91.05 298.569 88.1139 298.471 84.9803 297.796C84.4143 295.342 83.7286 292.903 82.6836 290.511C79.7881 283.303 75.2629 276.67 70.7158 271.725C68.4423 269.253 66.0956 267.151 64.0662 265.611C61.9171 264.085 59.9498 263.018 58.4507 262.732C57.7011 262.589 56.8474 262.58 56.2797 262.895C55.5923 263.226 55.1756 263.762 54.9096 264.519C54.3621 265.915 54.6576 268.164 55.6605 271.164C59.8233 283.383 69.9951 293.132 79.9308 297.373C81.3413 297.911 82.7518 298.449 84.1312 298.75C84.9771 303.336 84.9691 307.912 83.5974 312.306C82.5958 315.808 81.0794 318.174 79.2303 319.86C77.3657 321.428 75.288 322.302 72.8775 322.496C69.9881 322.753 66.7192 321.976 63.2217 320.386C60.5347 312.911 56.109 305.181 51.2976 298.224C45.4303 289.719 38.8803 282.507 34.2647 278.896C33.1668 277.956 32.1 277.252 31.1996 276.888C30.2992 276.524 29.4143 276.279 28.7114 276.491C27.9043 276.837 27.5186 277.61 27.5076 278.454C27.5123 279.417 27.6678 280.601 28.2291 282.093C32.1679 294.462 43.9663 309.175 55.8831 317.372C58.0323 318.897 60.2701 320.17 62.3415 321.103C62.9028 322.595 63.3445 324.103 63.6663 325.626C65.8946 334.245 64.9115 341.598 58.6255 345.67C55.4748 347.647 51.971 347.864 48.1454 346.558C44.3198 345.252 40.1879 342.541 36.0669 338.985C27.9291 331.74 19.8038 320.881 13.8386 310.704C10.8637 305.674 8.399 300.818 6.76156 296.698C5.88296 294.645 5.27496 292.798 4.95309 291.275C4.49593 289.649 4.44465 288.331 4.45556 287.487C4.57067 286.508 4.88326 286.106 5.22695 285.941C5.58619 285.894 6.32022 285.919 7.49122 286.488ZM61.5562 319.761C59.8595 318.899 58.1318 317.8 56.3885 316.583C44.6226 308.608 32.9595 293.997 29.1871 281.968C28.7455 280.46 28.4858 279.41 28.5123 278.684C28.5387 277.958 28.7627 277.809 28.8824 277.793C29.1219 277.762 29.6009 277.699 30.3816 278.079C31.1622 278.459 32.0937 279.059 33.3114 279.984C37.7916 283.492 44.2064 290.601 50.0736 299.106C54.7031 305.605 58.8116 312.775 61.5562 319.761ZM83.6165 297.613C82.4766 297.281 81.3367 296.948 80.1657 296.379C70.6203 292.328 60.5993 282.8 56.603 270.92C55.6 267.921 55.471 266.011 55.8256 265.001C56.0029 264.497 56.2113 264.229 56.555 264.063C56.8986 263.898 57.3776 263.835 58.0075 263.994C59.3869 264.295 61.0835 265.157 63.1129 266.698C65.1423 268.239 67.3536 270.238 69.6272 272.71C74.1743 277.655 78.5642 284.186 81.4286 291.156C82.4269 293.193 83.2013 295.38 83.6165 297.613ZM100.958 278.49C98.2618 278.361 95.1236 276.724 91.903 273.533C88.2765 270.033 84.6718 264.845 81.4793 258.158C81.131 257.361 80.7982 256.682 80.7205 256.09C80.6427 255.498 80.6116 255.261 80.7158 255.127C80.7003 255.009 80.82 254.993 80.9398 254.977C81.1793 254.946 81.4343 255.033 81.9444 255.207C82.8448 255.571 84.1511 256.243 85.6394 257.374C87.1276 258.504 88.7822 259.973 90.4679 261.679C93.8549 265.21 97.2465 269.704 99.352 274.606C100.002 275.846 100.532 277.101 100.958 278.49Z" fill="black"/>
</g>
<defs>
<clipPath id="clip0_242_218">
<rect width="812" height="500" fill="white"/>
</clipPath>
</defs>
</svg>
