<svg width="226" height="129" viewBox="0 0 226 129" fill="none" xmlns="http://www.w3.org/2000/svg">
<path d="M176 78.5C176 105.838 153.838 128 126.5 128C99.1619 128 77 105.838 77 78.5C77 51.1619 99.1619 29 126.5 29C153.838 29 176 51.1619 176 78.5Z" stroke="#fff"/>
<path d="M134.89 78.5C134.89 83.1336 131.134 86.8898 126.5 86.8898C121.866 86.8898 118.11 83.1336 118.11 78.5C118.11 73.8664 121.866 70.1102 126.5 70.1102C131.134 70.1102 134.89 73.8664 134.89 78.5Z" stroke="#fff"/>
<path d="M143.28 78.5C143.28 87.7672 135.767 95.2797 126.5 95.2797C117.233 95.2797 109.72 87.7672 109.72 78.5C109.72 69.2328 117.233 61.7203 126.5 61.7203C135.767 61.7203 143.28 69.2328 143.28 78.5Z" stroke="#fff"/>
<path d="M151.669 78.5C151.669 92.4007 140.401 103.669 126.5 103.669C112.599 103.669 101.331 92.4007 101.331 78.5C101.331 64.5993 112.599 53.3305 126.5 53.3305C140.401 53.3305 151.669 64.5993 151.669 78.5Z" stroke="#fff"/>
<path d="M160.059 78.5C160.059 97.0343 145.034 112.059 126.5 112.059C107.966 112.059 92.9407 97.0343 92.9407 78.5C92.9407 59.9657 107.966 44.9407 126.5 44.9407C145.034 44.9407 160.059 59.9657 160.059 78.5Z" stroke="#fff"/>
<path d="M168.449 78.5C168.449 101.668 149.668 120.449 126.5 120.449C103.332 120.449 84.5508 101.668 84.5508 78.5C84.5508 55.3321 103.332 36.5508 126.5 36.5508C149.668 36.5508 168.449 55.3321 168.449 78.5Z" stroke="#fff"/>
<path d="M18 9.5C12 9.5 9 6.33333 9 -3.93403e-07C9 6.33333 6 9.5 -4.15258e-07 9.5C6 9.5 9 12.6667 9 19C9 12.6667 12 9.5 18 9.5Z" fill="#fff"/>
<path d="M55 39.5C44 39.5 38.5 33.6667 38.5 22C38.5 33.6667 33 39.5 22 39.5C33 39.5 38.5 45.3333 38.5 57C38.5 45.3333 44 39.5 55 39.5Z" fill="#fff"/>
<path d="M226 36C221 36 218.5 33.3333 218.5 28C218.5 33.3333 216 36 211 36C216 36 218.5 38.6667 218.5 44C218.5 38.6667 221 36 226 36Z" fill="#fff"/>
<path d="M183.429 18.4777L188.598 16.4826L184.402 12.5174L182.703 17.7909L183.429 18.4777ZM183.046 17.4274L126.137 77.6566L126.863 78.3434L183.773 18.1142L183.046 17.4274Z" fill="#fff"/>
<circle cx="126.5" cy="78.5" r="3.5" fill="#fff"/>
</svg>
