<svg width="200" height="125" viewBox="0 0 200 125" fill="none" xmlns="http://www.w3.org/2000/svg">
<path fill-rule="evenodd" clip-rule="evenodd" d="M12.0172 65.6884C14.8498 64.8653 19.6477 62.1235 26.4192 56.8902C26.7619 56.6943 27.204 56.669 27.4029 57.0099C27.6018 57.3509 27.6293 57.7897 27.2866 57.9856C20.3437 63.3169 15.5099 66.1928 12.3705 67.0776C10.8008 67.52 9.47443 67.5961 8.49916 66.9033C7.52388 66.2105 7.26997 64.9918 7.32281 63.7114C7.37565 62.4311 7.80715 60.8207 8.6173 58.8803C9.39151 57.0741 10.409 54.9016 11.5978 52.6311C14.1108 48.1265 17.7239 42.766 21.9145 37.4164C30.2957 26.7172 41.3741 15.1585 52.0148 7.94141C57.3351 4.33285 62.6746 1.73623 67.5825 0.749983C72.4904 -0.236265 77.0663 0.55833 80.7241 3.69593C87.9044 9.93486 87.6974 19.3724 83.782 29.1107C83.287 30.4164 82.6567 31.6858 81.9903 33.0894C85.8786 32.1176 89.587 31.8168 92.9084 32.4191C95.923 33.083 98.4511 34.4796 100.556 36.9135C102.526 39.311 104.108 42.6117 104.69 46.9388C105.598 52.2162 104.909 57.4971 103.371 62.6945C106.944 62.3574 110.437 62.8618 113.307 64.0625C117.866 66.0033 121.137 70.044 121.964 76.1628C122.483 80.1852 121.846 84.1858 120.397 87.9687C123.918 88.9119 126.285 91.9914 127.301 96.8662C128.316 101.741 127.908 108.679 125.598 117.841L129.539 115.589C129.882 115.393 130.288 115.502 130.487 115.843C130.686 116.184 130.578 116.587 130.236 116.782L124.752 119.916C124.41 120.112 124.003 120.003 123.805 119.662L120.623 114.207C120.424 113.866 120.532 113.463 120.874 113.267C121.217 113.071 121.623 113.18 121.822 113.521L124.109 117.442C126.347 108.549 126.719 101.745 125.767 97.1744C124.815 92.6043 122.574 90.1342 119.731 89.3723C118.993 91.0443 118.155 92.5459 117.281 94.1816C113.939 99.6147 109.144 104.514 104.707 108.072C102.471 109.918 100.343 111.362 98.2871 112.537C96.4022 113.614 94.5893 114.423 93.2269 114.633C92.6134 114.756 91.8645 114.843 91.3229 114.698C90.7814 114.553 90.3117 114.139 90.0493 113.494C89.9224 112.884 89.9308 112.311 90.282 111.542C90.4618 110.872 90.9843 110.005 91.5427 109.004C96.2727 101.641 101.384 96.1066 106.262 92.5234C110.797 89.136 115.172 87.4316 118.936 88.0085C120.349 84.3598 121.085 80.5297 120.53 76.6415C119.766 70.8273 116.794 67.2981 112.74 65.6366C110.005 64.4722 106.612 64.1383 102.903 64.4391C101.877 67.1847 100.716 69.894 99.1486 72.4945C94.717 80.3685 88.4977 87.332 82.511 92.3442C79.5176 94.8503 76.4968 96.9175 73.9265 98.3863C71.2208 99.8188 68.7944 100.751 67.0258 100.852C66.1416 100.903 65.1579 100.783 64.5528 100.333C63.8124 99.8473 63.4146 99.1654 63.2242 98.2514C62.8074 96.5576 63.4906 94.0078 65.1025 90.7001C71.7573 77.2369 84.9492 67.5391 97.0285 64.1595C98.7336 63.7533 100.439 63.3472 102.072 63.2095C103.745 58.0483 104.434 52.7674 103.527 47.49C102.909 43.2972 101.525 40.3374 99.655 38.1103C97.7488 36.0174 95.4915 34.6934 92.7477 34.102C89.4623 33.3655 85.5825 33.7643 81.3156 35.0661C77.0828 43.2811 70.8106 51.5249 64.2127 58.8184C56.1636 67.7368 47.5262 75.0592 41.6643 78.5227C40.2576 79.4402 38.9227 80.0894 37.8311 80.3722C36.7395 80.6551 35.6839 80.8037 34.9075 80.4518C34.0317 79.9295 33.7058 78.9792 33.8221 78.0035C33.9744 76.8937 34.334 75.5517 35.2076 73.916C41.6276 60.2461 57.4489 45.068 72.4115 37.4268C75.1172 35.9942 77.8863 34.8664 80.4122 34.1049C81.2858 32.4692 82.0241 30.7972 82.6269 29.0889C86.5064 19.4847 86.4976 10.8524 79.8864 5.19748C76.5628 2.43711 72.5645 1.65342 67.9633 2.57803C63.3622 3.50264 58.1941 6.00134 52.9097 9.4757C42.4404 16.5949 31.4339 27.8852 23.0167 38.7186C18.8261 44.0682 15.249 49.2945 12.736 53.7991C11.4118 56.0333 10.4303 58.0716 9.82741 59.7799C9.05321 61.5861 8.79306 63.0985 8.67675 64.0742C8.65987 65.2203 8.95817 65.7318 9.3284 65.9748C9.73458 66.0836 10.5829 66.1671 12.0172 65.6884ZM79.3037 35.5339C77.22 36.27 75.0643 37.2746 72.8727 38.4133C58.1174 45.8224 42.4675 60.9026 36.2908 74.2062C35.5525 75.8782 35.0935 77.0497 35.0132 77.8912C34.9328 78.7326 35.1676 78.9394 35.303 78.9757C35.5738 79.0482 36.1154 79.1933 37.0716 78.8742C38.0278 78.5551 39.1913 78.0039 40.7335 77.1226C46.424 73.7571 54.89 66.5326 62.9391 57.6142C69.2578 50.8212 75.0794 43.1758 79.3037 35.5339ZM101.306 64.4426C99.9437 64.6529 98.5813 64.8632 97.1471 65.3419C85.5458 68.562 72.5612 78.0277 66.1496 91.1245C64.5378 94.4322 64.0978 96.6157 64.3517 97.8344C64.4787 98.4437 64.6776 98.7847 65.0478 99.0277C65.418 99.2707 65.9596 99.4158 66.7085 99.3288C68.3416 99.1911 70.4254 98.455 72.9956 96.9862C75.5659 95.5174 78.4154 93.5481 81.4088 91.042C87.3954 86.0298 93.4434 79.1642 97.8031 71.5586C99.2627 69.3607 100.488 66.9561 101.306 64.4426ZM118.341 89.1437C115.219 88.8824 111.358 90.2931 107.165 93.4846C102.458 96.9699 97.5187 102.406 92.8247 109.635C92.3022 110.502 91.8157 111.234 91.6359 111.905C91.4561 112.576 91.3842 112.845 91.4836 113.015C91.4477 113.149 91.5831 113.186 91.7185 113.222C91.9893 113.294 92.296 113.233 92.9095 113.11C94.0011 112.827 95.6067 112.25 97.4916 111.173C99.3765 110.096 101.505 108.652 103.705 106.941C108.141 103.383 112.729 98.7151 115.9 93.3799C116.837 92.0489 117.639 90.6815 118.341 89.1437Z" fill="#fff"/>
<path d="M159 31.5001C153 31.5001 150 28.3335 150 22.0001C150 28.3335 147 31.5001 141 31.5001C147 31.5001 150 34.6668 150 41.0001C150 34.6668 153 31.5001 159 31.5001Z" fill="#fff"/>
<path d="M200 66.5001C186.337 66.5001 179.503 59.337 179.5 45.0106C179.497 59.337 172.663 66.5001 159 66.5001C172.667 66.5001 179.5 73.6668 179.5 88.0001C179.5 73.6668 186.333 66.5001 200 66.5001Z" fill="#fff"/>
</svg>
