<svg width="166" height="116" viewBox="0 0 166 116" fill="none" xmlns="http://www.w3.org/2000/svg">
<path d="M147.314 91.5714C147.314 91.3347 147.204 91.1241 147.049 90.9513L131.699 58.4235C131.665 58.3555 131.598 58.3186 131.554 58.2616C131.529 58.2255 131.499 58.1978 131.47 58.1659C131.396 58.0929 131.331 58.0232 131.239 57.9746C131.12 57.9091 130.984 57.8621 130.839 57.847L97.7248 54.4134C97.5126 52.0469 95.7458 50.1187 93.4226 49.6747V45.8986C95.2047 45.4724 96.538 43.8965 96.538 42.0094C96.538 39.7991 94.7161 38 92.4742 38C90.2339 38 88.412 39.7991 88.412 42.0094C88.412 43.842 89.6717 45.3743 91.3759 45.8518V49.6732C89.4197 50.0475 87.8634 51.474 87.286 53.3251L54.1738 49.8889C54.1602 49.8872 54.1492 49.8922 54.134 49.8922C54.1205 49.8922 54.1129 49.8847 54.1002 49.8847C54.0774 49.8847 54.0605 49.8998 54.0419 49.9015C53.5761 49.909 53.2126 50.2044 53.095 50.6307L37.6777 83.1434C37.5619 83.3389 37.4824 83.5529 37.4824 83.7694V83.7752V83.7786C37.5636 92.6978 44.9887 99.9529 54.0292 99.9529C63.1096 99.9529 70.565 92.6978 70.6445 83.7786C70.6445 83.7618 70.6335 83.7299 70.6309 83.7073C70.6326 83.6754 70.6445 83.6469 70.6445 83.6166C70.6445 83.38 70.5362 83.1711 70.3815 82.9982L55.7968 52.0966L87.076 55.3423C87.2028 56.7781 87.8791 58.0963 89.0094 58.9985V104.076H80.4117V108.815H77.3498V115.58H107.445V108.815H104.381V104.076H95.7864L95.7855 58.9942C96.636 58.3154 97.2379 57.4058 97.5296 56.4248L129.226 59.7126L114.331 91.1254C114.222 91.3151 114.149 91.5181 114.149 91.7229C114.149 91.7245 114.151 91.7245 114.151 91.7262L114.149 91.7296C114.228 100.647 121.654 107.902 130.696 107.902C139.774 107.902 147.229 100.647 147.311 91.7296C147.311 91.7111 147.3 91.6792 147.297 91.6566C147.302 91.6306 147.313 91.6004 147.313 91.5701L147.314 91.5714ZM90.4629 42.0107C90.4629 40.9148 91.3658 40.0262 92.4741 40.0262C93.5841 40.0262 94.487 40.9173 94.487 42.0107C94.487 43.105 93.5816 43.9978 92.4741 43.9978C91.3641 43.9978 90.4629 43.105 90.4629 42.0107ZM54.0286 97.9257C46.4048 97.9257 40.0916 92.0349 39.5648 84.6254H68.5629C68.0329 92.0375 61.6907 97.9257 54.029 97.9257H54.0286ZM40.1972 82.6031L54.0987 53.2912L67.9377 82.6031H40.1972ZM102.331 106.1V110.839H105.395V113.555H79.403V110.839H82.4649V106.1H91.06V57.9292L90.5942 57.6304C89.6567 57.0347 89.0759 55.9799 89.0759 54.8765C89.0759 53.0664 90.5663 51.5947 92.399 51.5947C94.2317 51.5947 95.7222 53.0665 95.7222 54.8765C95.7222 54.9402 95.7298 55.0233 95.6934 55.2163C95.5877 56.214 95.0458 57.0943 94.2047 57.6281L93.7372 57.9268V106.095L102.331 106.096L102.331 106.1ZM130.769 61.2459L144.606 90.56H116.866L130.769 61.2459ZM130.7 105.883C123.075 105.883 116.765 99.9939 116.235 92.5862H145.233C144.703 99.9939 138.361 105.883 130.701 105.883H130.7Z" fill="black"/>
<path d="M153.15 13.5111C144.434 13.5111 140.075 9.00738 140.075 -5.71536e-07C140.075 9.00738 135.717 13.5111 127 13.5111C135.713 13.5111 140.071 18.0104 140.075 27.0089C140.079 18.0104 144.438 13.5111 153.15 13.5111Z" fill="black"/>
<path d="M165.62 37.5464C161.554 37.5464 159.52 35.3693 159.518 31.0152C159.516 35.3693 157.482 37.5464 153.416 37.5464C157.484 37.5464 159.518 39.7256 159.518 44.084C159.518 39.7256 161.552 37.5464 165.62 37.5464Z" fill="black"/>
<path d="M20.0488 88.1039C13.3659 88.1039 10.0245 84.4719 10.0245 77.2079C10.0245 84.4719 6.68305 88.1039 0.000155926 88.1039C6.68305 88.1039 10.0245 91.7359 10.0245 98.9999C10.0245 91.7359 13.3659 88.1039 20.0488 88.1039Z" fill="black"/>
</svg>
