<svg width="165" height="115" viewBox="0 0 165 115" fill="none" xmlns="http://www.w3.org/2000/svg">
<path d="M140.15 97.5111C131.434 97.5111 127.075 93.0074 127.075 84C127.075 93.0074 122.717 97.5111 114 97.5111C122.713 97.5111 127.071 102.01 127.075 111.009C127.079 102.01 131.438 97.5111 140.15 97.5111Z" fill="black"/>
<path d="M151.854 72.1703C147.788 72.1703 145.754 69.9932 145.752 65.6391C145.75 69.9932 143.716 72.1703 139.65 72.1703C143.718 72.1703 145.752 74.3495 145.752 78.7079C145.752 74.3495 147.786 72.1703 151.854 72.1703Z" fill="black"/>
<path d="M31 10.5C25.6667 10.5 23 7.66667 23 2C23 7.66667 20.3333 10.5 15 10.5C20.3333 10.5 23 13.3333 23 19C23 13.3333 25.6667 10.5 31 10.5Z" fill="black"/>
<path d="M92.2733 2.7444L92.7194 1.84942L92.7172 1.84832L92.2733 2.7444ZM120.864 16.9955L120.418 17.8905L120.42 17.8916L120.864 16.9955ZM124.831 23.3729H125.831V23.3724L124.831 23.3729ZM124.831 57.3262L125.831 57.3267V57.3262H124.831ZM120.864 63.7036L120.42 62.8075L120.418 62.8086L120.864 63.7036ZM92.2733 77.9547L91.8272 77.0597L91.8269 77.0598L92.2733 77.9547ZM85.876 77.9547L86.3224 77.0598L86.3221 77.0597L85.876 77.9547ZM57.285 63.7036L56.8361 64.5972L56.8389 64.5985L57.285 63.7036ZM53.3537 57.2906L54.3537 57.2975V57.2906H53.3537ZM53.3537 23.3729L52.3537 23.3724V23.3729H53.3537ZM57.3207 16.9955L57.7646 17.8916L57.7668 17.8905L57.3207 16.9955ZM85.9118 2.7444L85.4679 1.84832L85.4657 1.84942L85.9118 2.7444ZM89.0925 2V3V2ZM54.9434 18.6301C54.4491 18.3837 53.8487 18.5847 53.6023 19.079C53.356 19.5733 53.5569 20.1737 54.0512 20.4201L54.9434 18.6301ZM124.134 20.4201C124.628 20.1737 124.829 19.5733 124.583 19.079C124.336 18.5847 123.736 18.3837 123.242 18.6301L124.134 20.4201ZM88.0925 78.6672C88.0925 79.2195 88.5403 79.6672 89.0925 79.6672C89.6448 79.6672 90.0925 79.2195 90.0925 78.6672H88.0925ZM71.6692 9.15312C71.1749 8.90674 70.5745 9.10771 70.3281 9.602C70.0818 10.0963 70.2827 10.6967 70.777 10.9431L71.6692 9.15312ZM106.516 28.757C107.01 29.0034 107.611 28.8024 107.857 28.3081C108.103 27.8138 107.902 27.2134 107.408 26.967L106.516 28.757ZM91.8272 3.63939L120.418 17.8905L121.31 16.1005L92.7194 1.84942L91.8272 3.63939ZM120.42 17.8916C121.445 18.3991 122.307 19.1812 122.909 20.1496L124.607 19.0933C123.808 17.8084 122.666 16.7718 121.308 16.0994L120.42 17.8916ZM122.909 20.1496C123.511 21.118 123.831 22.2345 123.831 23.3734L125.831 23.3724C125.831 21.86 125.407 20.3781 124.607 19.0933L122.909 20.1496ZM123.831 23.3729V57.3262H125.831V23.3729H123.831ZM123.831 57.3256C123.831 58.4646 123.511 59.5811 122.909 60.5494L124.607 61.6058C125.407 60.321 125.831 58.8391 125.831 57.3267L123.831 57.3256ZM122.909 60.5494C122.307 61.5179 121.445 62.3 120.42 62.8075L121.308 64.5996C122.665 63.9273 123.808 62.8906 124.607 61.6058L122.909 60.5494ZM120.418 62.8086L91.8272 77.0597L92.7194 78.8497L121.31 64.5985L120.418 62.8086ZM91.8269 77.0598C90.9726 77.486 90.0303 77.708 89.0747 77.708V79.708C90.3399 79.708 91.5879 79.4141 92.7197 78.8495L91.8269 77.0598ZM89.0747 77.708C88.1191 77.708 87.1767 77.486 86.3224 77.0598L85.4297 78.8495C86.5614 79.4141 87.8094 79.708 89.0747 79.708V77.708ZM86.3221 77.0597L57.7311 62.8086L56.8389 64.5985L85.4299 78.8497L86.3221 77.0597ZM57.7338 62.81C56.7104 62.2959 55.8519 61.5072 55.2548 60.5331L53.5497 61.5784C54.3418 62.8707 55.4803 63.9161 56.8361 64.5972L57.7338 62.81ZM55.2548 60.5331C54.6577 59.5591 54.3457 58.4385 54.3537 57.2975L52.3537 57.2836C52.3431 58.7985 52.7575 60.2861 53.5497 61.5784L55.2548 60.5331ZM54.3537 57.2906V23.3729H52.3537V57.2906H54.3537ZM54.3537 23.3734C54.3543 22.2345 54.6736 21.118 55.276 20.1496L53.5777 19.0933C52.7785 20.3781 52.3545 21.86 52.3537 23.3724L54.3537 23.3734ZM55.276 20.1496C55.8784 19.1812 56.7401 18.3991 57.7646 17.8916L56.8768 16.0994C55.5196 16.7718 54.3769 17.8084 53.5777 19.0933L55.276 20.1496ZM57.7668 17.8905L86.3579 3.63939L85.4657 1.84942L56.8746 16.1005L57.7668 17.8905ZM86.3557 3.64048C87.206 3.21927 88.1427 3 89.0925 3V1C87.835 1 86.5944 1.29031 85.4679 1.84832L86.3557 3.64048ZM89.0925 3C90.0423 3 90.9791 3.21927 91.8294 3.64048L92.7172 1.84832C91.5907 1.29031 90.3501 1 89.0925 1V3ZM54.0512 20.4201L88.6464 37.6639L89.5386 35.874L54.9434 18.6301L54.0512 20.4201ZM89.5386 37.6639L124.134 20.4201L123.242 18.6301L88.6464 35.874L89.5386 37.6639ZM90.0925 78.6672L90.0925 36.7689H88.0925L88.0925 78.6672H90.0925ZM70.777 10.9431L106.516 28.757L107.408 26.967L71.6692 9.15312L70.777 10.9431Z" fill="black"/>
</svg>
