<?xml version="1.0" encoding="utf-8"?><svg width="883" height="624" fill="none" xmlns="http://www.w3.org/2000/svg" viewBox="0 0 883 624"><path class="hcircle" d="M588.844 323c0 27.528-22.316 49.844-49.844 49.844-27.528 0-49.844-22.316-49.844-49.844 0-27.528 22.316-49.844 49.844-49.844 27.528 0 49.844 22.316 49.844 49.844z" stroke="#D8C3A4" stroke-width="3"/><path class="hcircle" d="M638.688 323c0 55.056-44.632 99.688-99.688 99.688-55.056 0-99.688-44.632-99.688-99.688 0-55.056 44.632-99.688 99.688-99.688 55.056 0 99.688 44.632 99.688 99.688z" stroke="#D8C3A4" stroke-width="3"/><path class="hcircle" d="M688.531 323c0 82.584-66.947 149.531-149.531 149.531S389.469 405.584 389.469 323 456.416 173.469 539 173.469 688.531 240.416 688.531 323z" stroke="#D8C3A4" stroke-width="3"/><path class="hcircle" d="M738.375 323c0 110.112-89.263 199.375-199.375 199.375S339.625 433.112 339.625 323 428.888 123.625 539 123.625 738.375 212.888 738.375 323z" stroke="#D8C3A4" stroke-width="3"/><path class="hcircle" d="M788.219 323c0 137.64-111.579 249.219-249.219 249.219S289.781 460.64 289.781 323 401.36 73.781 539 73.781 788.219 185.36 788.219 323z" stroke="#D8C3A4" stroke-width="3"/><path class="hcircle" d="M833.078 323c0 162.415-131.663 294.078-294.078 294.078-162.415 0-294.078-131.663-294.078-294.078 0-162.415 131.663-294.078 294.078-294.078 162.415 0 294.078 131.663 294.078 294.078z" stroke="#D8C3A4" stroke-width="3"/><path class="hcircle" d="M560 323c-14 0-21-7-21-21 0 14-7 21-21 21 14 0 21 7 21 21 0-14 7-21 21-21z" fill="#D8C3A4"/><path class="hstar" d="M137 473c-30 0-45-15.333-45-46 0 30.667-15 46-45 46 30 0 45 15.333 45 46 0-30.667 15-46 45-46z" fill="#E93A3F"/><path class="hstar" d="M849 6l6.8 22.222L878.445 23 862.6 40l15.845 17-22.645-5.222L849 74l-6.8-22.222L819.555 57 835.4 40l-15.845-17 22.645 5.222L849 6z" stroke="#E93A3F" stroke-width="3"/><path class="hstar" d="M17 514v.009c.003 11.661 5.67 17.491 17 17.491-11.333 0-17 5.833-17 17.5 0-11.667-5.667-17.5-17-17.5 11.33 0 16.997-5.83 17-17.491V514z" fill="#D8C3A4"/></svg>