<?xml version="1.0" encoding="utf-8"?><svg width="43" height="43" fill="none" xmlns="http://www.w3.org/2000/svg" viewBox="0 0 43 43"><path d="M41 22c0 11.046-8.954 20-20 20S1 33.046 1 22 9.954 2 21 2s20 8.954 20 20z" stroke="#000" stroke-width="2"/><path d="M27.78 22a6.78 6.78 0 11-13.56 0 6.78 6.78 0 0113.56 0z" stroke="#000" stroke-width="2"/><path d="M34.56 22c0 7.489-6.071 13.56-13.56 13.56-7.489 0-13.56-6.071-13.56-13.56 0-7.489 6.071-13.56 13.56-13.56 7.489 0 13.56 6.071 13.56 13.56z" stroke="#000" stroke-width="2"/></svg>