<?xml version="1.0" encoding="utf-8"?><svg width="230" height="93" fill="none" xmlns="http://www.w3.org/2000/svg" viewBox="0 0 230 93"><path fill="#fff" d="M0 0h230v93H0z"/><path d="M47.968 31.36c.773-.027 2.24-.04 4.4-.04 2.187 0 3.667.013 4.44.04 2.747.053 4.907.787 6.48 2.2 1.573 1.413 2.36 3.373 2.36 5.88 0 1.787-.4 3.373-1.2 4.76-.8 1.36-1.933 2.413-3.4 3.16-1.44.747-3.08 1.12-4.92 1.12h-2.6V58h-5.56V31.36zm7.92 12.4c1.307 0 2.32-.373 3.04-1.12.747-.747 1.12-1.76 1.12-3.04 0-2.347-1.293-3.52-3.88-3.52h-2.64v7.68h2.36zM75.134 58.6c-2.133 0-3.826-.907-5.08-2.72-1.253-1.813-1.88-4.28-1.88-7.4 0-3.787.96-6.667 2.88-8.64 1.92-2 4.68-3 8.28-3 2.027 0 4.4.32 7.12.96V58h-5.36l.12-3.28h-.16c-.693 1.253-1.546 2.213-2.56 2.88-.986.667-2.106 1-3.36 1zm1.2-4.92c.827 0 1.64-.44 2.44-1.32.8-.88 1.547-2.053 2.24-3.52v-6.72a9.417 9.417 0 00-2.56-.36c-1.6 0-2.813.547-3.64 1.64-.8 1.093-1.2 2.707-1.2 4.84 0 1.68.24 3.013.72 4 .48.96 1.147 1.44 2 1.44zM91.951 37.4h5.64v3.36h.32c.773-1.36 1.533-2.36 2.279-3 .774-.64 1.734-.96 2.88-.96.48 0 .88.053 1.2.16l-.6 6.08c-.693-.187-1.253-.28-1.68-.28-.613 0-1.16.12-1.64.36-.453.24-.866.56-1.24.96-.346.4-.853 1.013-1.52 1.84V58h-5.64V37.4zm24.002 21.2c-1.92 0-3.413-.48-4.48-1.44-1.04-.987-1.56-2.373-1.56-4.16V42.24h-3.2V37.4h3.2V33a69.96 69.96 0 015.6-.72v5.12h5.2v4.84h-5.2v9.72c0 .56.16.987.48 1.28.347.293.827.44 1.44.44.747 0 1.6-.173 2.56-.52l1.24 4.24c-1.707.8-3.467 1.2-5.28 1.2zm9.276-21.2h5.52v3.56c.853-1.413 1.84-2.453 2.96-3.12 1.12-.667 2.427-1 3.92-1 2.213 0 3.947.667 5.2 2 1.253 1.307 1.88 3.133 1.88 5.48V58h-5.64V45.2c0-1.067-.267-1.893-.8-2.48-.533-.613-1.253-.92-2.16-.92-1.067 0-2.08.4-3.04 1.2-.96.8-1.693 1.813-2.2 3.04V58h-5.64V37.4zm34.407 21.2c-3.333 0-5.96-.96-7.88-2.88-1.893-1.92-2.84-4.587-2.84-8 0-2.213.414-4.133 1.24-5.76.827-1.653 1.987-2.92 3.48-3.8 1.52-.88 3.294-1.32 5.32-1.32 2.987 0 5.28.96 6.88 2.88 1.6 1.92 2.4 4.693 2.4 8.32 0 .613-.013 1.067-.04 1.36h-13.6c.267 1.413.88 2.493 1.84 3.24.96.72 2.254 1.08 3.88 1.08.987 0 2.014-.12 3.08-.36 1.067-.267 2-.613 2.8-1.04l.92 4.52c-1.066.56-2.253.987-3.56 1.28-1.28.32-2.586.48-3.92.48zm3.2-13.44c-.08-1.147-.48-2.053-1.2-2.72-.72-.693-1.68-1.04-2.88-1.04-1.146 0-2.093.333-2.84 1-.72.667-1.173 1.587-1.36 2.76h8.28zm9.739-7.76h5.64v3.36h.32c.774-1.36 1.534-2.36 2.28-3 .774-.64 1.734-.96 2.88-.96.48 0 .88.053 1.2.16l-.6 6.08c-.693-.187-1.253-.28-1.68-.28-.613 0-1.16.12-1.64.36-.453.24-.866.56-1.24.96a76.01 76.01 0 00-1.52 1.84V58h-5.64V37.4z" fill="#EADACB"/></svg>