<?xml version="1.0" encoding="utf-8"?><svg width="160" height="73" fill="none" xmlns="http://www.w3.org/2000/svg" viewBox="0 0 160 73"><path d="M0 46.455h6.956V9.154H.382V0h17.35v46.455h6.956v9.23H0v-9.23zM49.06 56.829c-3.974 0-7.49-.865-10.548-2.594-3.006-1.729-5.35-4.144-7.032-7.246-1.681-3.153-2.522-6.79-2.522-10.908 0-4.12.815-7.73 2.446-10.832 1.682-3.153 4.025-5.594 7.032-7.323 3.057-1.73 6.573-2.594 10.548-2.594 3.974 0 7.465.865 10.471 2.594 3.058 1.678 5.402 4.068 7.032 7.17 1.682 3.102 2.523 6.687 2.523 10.756 0 4.119-.841 7.78-2.523 10.984-1.63 3.153-3.974 5.62-7.031 7.4-3.007 1.728-6.472 2.593-10.396 2.593zm-.076-9.306c2.752 0 4.943-1.043 6.573-3.128 1.682-2.136 2.523-4.933 2.523-8.39 0-3.459-.841-6.205-2.523-8.24-1.63-2.084-3.821-3.127-6.573-3.127-2.752 0-4.968 1.043-6.65 3.128-1.63 2.034-2.446 4.78-2.446 8.238 0 3.458.816 6.255 2.446 8.391 1.682 2.085 3.898 3.127 6.65 3.127zM90.51 73c-4.536 0-8.969-.585-13.3-1.754l2.064-9.46c4.891 1.425 8.968 2.137 12.23 2.137 2.598 0 4.585-.407 5.961-1.22 1.427-.815 2.42-2.086 2.981-3.815.611-1.729.968-4.093 1.07-7.094h-.229c-1.427 1.628-3.083 2.873-4.969 3.738-1.885.864-3.949 1.297-6.19 1.297-4.485 0-8-1.678-10.549-5.035-2.497-3.407-3.745-8.111-3.745-14.112 0-7.272 1.86-12.815 5.58-16.629 3.77-3.814 9.146-5.72 16.127-5.72 4.026 0 8.816.61 14.37 1.83.102 10.476.153 18.358.153 23.647 0 4.73-.025 8.289-.076 10.679-.102 7.221-1.937 12.612-5.504 16.171-3.516 3.56-8.84 5.34-15.974 5.34zm2.445-25.554c1.58 0 3.083-.585 4.51-1.754 1.478-1.17 2.777-2.823 3.898-4.959l-.076-15.332c-1.682-.457-3.312-.686-4.892-.686-3.21 0-5.656 1.042-7.338 3.127-1.63 2.085-2.446 5.111-2.446 9.078 0 3.305.535 5.898 1.605 7.78 1.122 1.83 2.701 2.746 4.74 2.746zM140.051 56.829c-3.975 0-7.491-.865-10.548-2.594-3.007-1.729-5.351-4.144-7.032-7.246-1.682-3.153-2.523-6.79-2.523-10.908 0-4.12.816-7.73 2.446-10.832 1.682-3.153 4.026-5.594 7.032-7.323 3.057-1.73 6.573-2.594 10.548-2.594 3.975 0 7.465.865 10.472 2.594 3.057 1.678 5.401 4.068 7.032 7.17 1.681 3.102 2.522 6.687 2.522 10.756 0 4.119-.841 7.78-2.522 10.984-1.631 3.153-3.975 5.62-7.032 7.4-3.007 1.728-6.472 2.593-10.395 2.593zm-.077-9.306c2.752 0 4.943-1.043 6.573-3.128 1.682-2.136 2.523-4.933 2.523-8.39 0-3.459-.841-6.205-2.523-8.24-1.63-2.084-3.821-3.127-6.573-3.127-2.752 0-4.968 1.043-6.65 3.128-1.63 2.034-2.446 4.78-2.446 8.238 0 3.458.816 6.255 2.446 8.391 1.682 2.085 3.898 3.127 6.65 3.127z" fill="#3B3738"/></svg>