<?xml version="1.0" encoding="utf-8"?><svg width="812" height="500" fill="none" xmlns="http://www.w3.org/2000/svg" viewBox="0 0 812 500"><g clip-path="url(#lclip0_242_218)"><path d="M812 249.895c0 137.984-112.153 249.843-250.5 249.843-138.347 0-250.5-111.859-250.5-249.843C311 111.911 423.153.052 561.5.052 699.847.052 812 111.911 812 249.895z" stroke="#000"/><path d="M603.958 249.895c0 23.387-19.009 42.346-42.458 42.346-23.449 0-42.458-18.959-42.458-42.346 0-23.387 19.009-42.346 42.458-42.346 23.449 0 42.458 18.959 42.458 42.346z" stroke="#000"/><path d="M646.415 249.895c0 46.774-38.018 84.692-84.915 84.692-46.897 0-84.915-37.918-84.915-84.692 0-46.774 38.018-84.692 84.915-84.692 46.897 0 84.915 37.918 84.915 84.692z" stroke="#000"/><path d="M688.873 249.895c0 70.161-57.027 127.039-127.373 127.039s-127.373-56.878-127.373-127.039S491.154 122.856 561.5 122.856s127.373 56.878 127.373 127.039z" stroke="#000"/><path d="M731.331 249.895c0 93.549-76.036 169.385-169.831 169.385-93.795 0-169.831-75.836-169.831-169.385 0-93.549 76.036-169.385 169.831-169.385 93.795 0 169.831 75.836 169.831 169.385z" stroke="#000"/><path d="M773.788 249.895c0 116.936-95.044 211.731-212.288 211.731-117.243 0-212.288-94.795-212.288-211.731 0-116.936 95.045-211.73 212.288-211.73 117.244 0 212.288 94.794 212.288 211.73z" stroke="#000"/><path d="M224 127.717c-5.333 0-8-2.66-8-7.979 0 5.319-2.667 7.979-8 7.979 5.333 0 8 2.659 8 7.979 0-5.32 2.667-7.979 8-7.979zM203 99c-15.333 0-23-7.667-23-23 0 15.333-7.667 23-23 23 15.33 0 22.996 7.663 23 22.989.004-15.326 7.67-22.989 23-22.989z" fill="#000"/><path fill-rule="evenodd" clip-rule="evenodd" d="M7.491 286.488c2.327 1.021 6.115 3.897 11.307 9.119.27.205.646.276.854.008.208-.268.282-.638.011-.844-5.328-5.324-9.132-8.319-11.713-9.427-1.29-.553-2.415-.768-3.326-.287-.912.48-1.266 1.489-1.366 2.586-.1 1.097.087 2.517.56 4.262a78.248 78.248 0 001.84 5.659c1.637 4.121 4.117 9.095 7.092 14.125 5.95 10.059 14.106 21.155 22.38 28.502 4.136 3.674 8.403 6.488 12.483 7.882 4.081 1.393 8.08 1.232 11.558-1.029 6.838-4.506 7.728-12.569 5.484-21.306-.275-1.168-.67-2.321-1.08-3.592 3.211 1.266 6.345 1.941 9.25 1.802 2.65-.226 4.967-1.131 7.04-2.967 1.953-1.82 3.678-4.454 4.664-8.075 1.372-4.393 1.38-8.97.654-13.571 3.013.69 6.054.654 8.641-.045 4.114-1.14 7.364-4.213 8.762-9.333.898-3.368.806-6.848-.004-10.234 3.113-.407 5.483-2.763 6.902-6.802 1.418-4.038 1.854-9.995.916-18.06l3.112 2.363c.271.205.63.158.838-.11a.571.571 0 00-.109-.828l-4.329-3.288a.588.588 0 00-.838.11l-3.334 4.288a.573.573 0 00.108.829c.271.205.63.159.839-.11l2.396-3.082c.907 7.828.455 13.667-.874 17.453-1.33 3.786-3.523 5.638-6.038 5.966-.441-1.507-.987-2.881-1.548-4.373-2.241-5.005-5.784-9.72-9.17-13.251a39.173 39.173 0 00-4.98-4.527c-1.488-1.13-2.945-2.023-4.085-2.356-.51-.174-1.14-.332-1.62-.27-.478.063-.926.362-1.223.883-.177.504-.235.993-.022 1.688.078.592.426 1.389.79 2.305 3.208 6.805 6.948 12.096 10.71 15.699 3.49 3.397 7.035 5.342 10.315 5.275.794 3.267.99 6.613.077 9.863-1.309 4.867-4.247 7.539-7.897 8.497-2.468.684-5.404.586-8.538-.089-.566-2.454-1.251-4.893-2.296-7.285-2.896-7.208-7.421-13.841-11.968-18.786-2.274-2.472-4.62-4.574-6.65-6.114-2.149-1.526-4.116-2.593-5.615-2.879-.75-.143-1.604-.152-2.171.163-.688.331-1.104.867-1.37 1.624-.548 1.396-.252 3.645.75 6.645 4.163 12.219 14.335 21.968 24.27 26.209 1.411.538 2.822 1.076 4.201 1.377.846 4.586.838 9.162-.534 13.556-1.001 3.502-2.518 5.868-4.367 7.554-1.864 1.568-3.942 2.442-6.353 2.636-2.889.257-6.158-.52-9.655-2.11-2.687-7.475-7.113-15.205-11.924-22.162-5.868-8.505-12.418-15.717-17.033-19.328-1.098-.94-2.165-1.644-3.065-2.008-.9-.364-1.786-.609-2.489-.397-.807.346-1.192 1.119-1.203 1.963.004.963.16 2.147.721 3.639 3.939 12.369 15.737 27.082 27.654 35.279 2.15 1.525 4.387 2.798 6.459 3.731.56 1.492 1.002 3 1.324 4.523 2.229 8.619 1.246 15.972-5.04 20.044-3.151 1.977-6.655 2.194-10.48.888-3.826-1.306-7.958-4.017-12.08-7.573-8.137-7.245-16.262-18.104-22.227-28.281-2.975-5.03-5.44-9.886-7.077-14.006-.879-2.053-1.487-3.9-1.809-5.423a13.141 13.141 0 01-.497-3.788c.115-.979.427-1.381.771-1.546.36-.047 1.093-.022 2.264.547zm54.065 33.273c-1.697-.862-3.424-1.961-5.167-3.178-11.766-7.975-23.43-22.586-27.202-34.615-.442-1.508-.701-2.558-.675-3.284.027-.726.25-.875.37-.891.24-.031.719-.094 1.5.286.78.38 1.712.98 2.93 1.905 4.48 3.508 10.894 10.617 16.762 19.122 4.63 6.499 8.738 13.669 11.482 20.655zm22.06-22.148c-1.14-.332-2.28-.665-3.45-1.234-9.546-4.051-19.567-13.579-23.563-25.459-1.003-2.999-1.132-4.909-.777-5.919.177-.504.385-.772.729-.938.344-.165.823-.228 1.453-.069 1.379.301 3.075 1.163 5.105 2.704 2.03 1.541 4.24 3.54 6.514 6.012 4.547 4.945 8.937 11.476 11.802 18.446.998 2.037 1.772 4.224 2.188 6.457zm17.342-19.123c-2.696-.129-5.834-1.766-9.055-4.957-3.627-3.5-7.231-8.688-10.424-15.375-.348-.797-.68-1.476-.758-2.068-.078-.592-.11-.829-.005-.963-.016-.118.104-.134.224-.15.24-.031.494.056 1.004.23.9.364 2.207 1.036 3.695 2.167 1.489 1.13 3.143 2.599 4.829 4.305 3.387 3.531 6.778 8.025 8.884 12.927.65 1.24 1.18 2.495 1.606 3.884z" fill="#000"/></g><defs><clipPath id="lclip0_242_218"><path fill="#fff" d="M0 0h812v500H0z"/></clipPath></defs></svg>