<?xml version="1.0" encoding="utf-8"?><svg width="226" height="129" fill="none" xmlns="http://www.w3.org/2000/svg" viewBox="0 0 226 129"><path d="M176 78.5c0 27.338-22.162 49.5-49.5 49.5S77 105.838 77 78.5 99.162 29 126.5 29 176 51.162 176 78.5z" stroke="#fff"/><path d="M134.89 78.5a8.39 8.39 0 01-8.39 8.39 8.39 8.39 0 110-16.78 8.39 8.39 0 018.39 8.39z" stroke="#fff"/><path d="M143.28 78.5c0 9.267-7.513 16.78-16.78 16.78-9.267 0-16.78-7.513-16.78-16.78 0-9.267 7.513-16.78 16.78-16.78 9.267 0 16.78 7.513 16.78 16.78z" stroke="#fff"/><path d="M151.669 78.5c0 13.9-11.268 25.169-25.169 25.169S101.331 92.401 101.331 78.5c0-13.9 11.268-25.17 25.169-25.17s25.169 11.27 25.169 25.17z" stroke="#fff"/><path d="M160.059 78.5c0 18.534-15.025 33.559-33.559 33.559S92.94 97.034 92.94 78.5s15.026-33.56 33.56-33.56c18.534 0 33.559 15.026 33.559 33.56z" stroke="#fff"/><path d="M168.449 78.5c0 23.168-18.781 41.949-41.949 41.949S84.55 101.668 84.55 78.5s18.782-41.95 41.95-41.95c23.168 0 41.949 18.782 41.949 41.95z" stroke="#fff"/><path d="M18 9.5c-6 0-9-3.167-9-9.5 0 6.333-3 9.5-9 9.5 6 0 9 3.167 9 9.5 0-6.333 3-9.5 9-9.5zM55 39.5c-11 0-16.5-5.833-16.5-17.5 0 11.667-5.5 17.5-16.5 17.5 11 0 16.5 5.833 16.5 17.5 0-11.667 5.5-17.5 16.5-17.5zM226 36c-5 0-7.5-2.667-7.5-8 0 5.333-2.5 8-7.5 8 5 0 7.5 2.667 7.5 8 0-5.333 2.5-8 7.5-8zM183.429 18.478l5.169-1.995-4.196-3.966-1.699 5.274.726.687zm-.383-1.05l-56.909 60.229.726.686 56.91-60.229-.727-.687z" fill="#fff"/><circle cx="126.5" cy="78.5" r="3.5" fill="#fff"/></svg>