<?xml version="1.0" encoding="utf-8"?><svg width="200" height="125" fill="none" xmlns="http://www.w3.org/2000/svg" viewBox="0 0 200 125"><path fill-rule="evenodd" clip-rule="evenodd" d="M12.017 65.688c2.833-.823 7.63-3.565 14.402-8.798.343-.196.785-.221.984.12.199.34.226.78-.116.976-6.943 5.33-11.777 8.207-14.916 9.092-1.57.442-2.897.518-3.872-.175-.975-.693-1.229-1.911-1.176-3.192.053-1.28.484-2.89 1.294-4.83a91.305 91.305 0 012.98-6.25c2.514-4.505 6.127-9.865 10.318-15.215 8.38-10.699 19.46-22.257 30.1-29.475 5.32-3.608 10.66-6.205 15.567-7.191 4.908-.986 9.484-.192 13.142 2.946 7.18 6.239 6.973 15.676 3.058 25.415-.495 1.305-1.125 2.575-1.792 3.978 3.889-.971 7.597-1.272 10.918-.67 3.015.664 5.543 2.06 7.648 4.495 1.97 2.397 3.552 5.698 4.134 10.025.908 5.277.219 10.558-1.319 15.755 3.573-.337 7.066.168 9.936 1.368 4.559 1.941 7.83 5.982 8.657 12.1.519 4.023-.118 8.024-1.567 11.807 3.521.943 5.888 4.022 6.904 8.897 1.015 4.875.607 11.813-1.703 20.975l3.941-2.252a.682.682 0 01.948.254.667.667 0 01-.251.939l-5.484 3.134a.68.68 0 01-.947-.254l-3.182-5.455a.668.668 0 01.251-.94.682.682 0 01.948.254l2.287 3.921c2.238-8.893 2.61-15.697 1.658-20.268-.952-4.57-3.193-7.04-6.036-7.802-.738 1.672-1.576 3.174-2.45 4.81-3.342 5.433-8.137 10.332-12.574 13.89-2.236 1.846-4.364 3.29-6.42 4.465-1.885 1.077-3.698 1.886-5.06 2.096-.614.123-1.362.21-1.904.065-.542-.145-1.011-.559-1.274-1.204-.127-.61-.118-1.183.233-1.952.18-.67.702-1.537 1.26-2.538 4.73-7.363 9.842-12.897 14.72-16.48 4.535-3.388 8.91-5.092 12.674-4.516 1.413-3.648 2.149-7.478 1.594-11.367-.764-5.814-3.736-9.343-7.79-11.004-2.735-1.165-6.128-1.499-9.837-1.198-1.026 2.746-2.187 5.455-3.754 8.056-4.432 7.873-10.651 14.837-16.638 19.85-2.993 2.505-6.014 4.573-8.584 6.041-2.706 1.433-5.133 2.365-6.901 2.466-.884.051-1.868-.069-2.473-.519-.74-.486-1.138-1.168-1.329-2.082-.417-1.693.267-4.243 1.879-7.55 6.654-13.464 19.846-23.162 31.925-26.541 1.706-.407 3.411-.813 5.044-.95 1.673-5.162 2.362-10.443 1.455-15.72-.618-4.193-2.002-7.153-3.872-9.38-1.906-2.093-4.163-3.417-6.907-4.008-3.286-.736-7.166-.338-11.432.964-4.233 8.215-10.505 16.459-17.103 23.752-8.05 8.919-16.687 16.241-22.549 19.705-1.406.917-2.741 1.566-3.833 1.85-1.092.282-2.147.43-2.924.079-.875-.522-1.201-1.473-1.085-2.448.152-1.11.512-2.452 1.386-4.088 6.42-13.67 22.24-28.848 37.204-36.49 2.705-1.432 5.474-2.56 8-3.321a36.223 36.223 0 002.215-5.016c3.88-9.604 3.87-18.237-2.74-23.892-3.324-2.76-7.323-3.544-11.924-2.619-4.6.925-9.769 3.423-15.053 6.898-10.47 7.119-21.476 18.41-29.893 29.243-4.19 5.35-7.768 10.575-10.281 15.08-1.324 2.234-2.306 4.273-2.909 5.98a15.329 15.329 0 00-1.15 4.295c-.017 1.146.281 1.658.651 1.9.407.11 1.255.193 2.69-.286zm67.287-30.154c-2.084.736-4.24 1.74-6.431 2.88-14.756 7.408-30.406 22.489-36.582 35.792-.738 1.672-1.197 2.844-1.278 3.685-.08.842.155 1.048.29 1.085.27.072.812.217 1.769-.102.956-.319 2.12-.87 3.661-1.751 5.691-3.366 14.157-10.59 22.206-19.509 6.319-6.793 12.14-14.438 16.365-22.08zm22.002 28.909c-1.362.21-2.725.42-4.159.899-11.601 3.22-24.586 12.686-30.997 25.782-1.612 3.308-2.052 5.492-1.798 6.71.127.61.326.95.696 1.194.37.243.912.388 1.66.3 1.634-.137 3.717-.873 6.288-2.342 2.57-1.469 5.42-3.438 8.413-5.944 5.986-5.012 12.034-11.878 16.394-19.483 1.46-2.198 2.685-4.603 3.503-7.116zm17.035 24.7c-3.122-.26-6.983 1.15-11.176 4.342-4.707 3.485-9.646 8.921-14.34 16.15-.523.867-1.01 1.599-1.19 2.27-.179.671-.25.94-.151 1.11-.036.134.1.171.235.207.27.072.577.011 1.19-.112 1.092-.283 2.698-.86 4.583-1.937 1.884-1.077 4.013-2.521 6.213-4.232 4.436-3.558 9.024-8.226 12.195-13.561a26.021 26.021 0 002.441-4.236z" fill="#fff"/><path d="M159 31.5c-6 0-9-3.166-9-9.5 0 6.334-3 9.5-9 9.5 6 0 9 3.167 9 9.5 0-6.333 3-9.5 9-9.5zM200 66.5c-13.663 0-20.497-7.163-20.5-21.49-.003 14.327-6.837 21.49-20.5 21.49 13.667 0 20.5 7.167 20.5 21.5 0-14.333 6.833-21.5 20.5-21.5z" fill="#fff"/></svg>