<?xml version="1.0" encoding="utf-8"?><svg width="165" height="115" fill="none" xmlns="http://www.w3.org/2000/svg" viewBox="0 0 165 115"><path d="M140.15 97.511c-8.716 0-13.075-4.504-13.075-13.511 0 9.007-4.358 13.511-13.075 13.511 8.713 0 13.071 4.499 13.075 13.498.004-8.999 4.363-13.498 13.075-13.498zM151.854 72.17c-4.066 0-6.1-2.177-6.102-6.53-.002 4.353-2.036 6.53-6.102 6.53 4.068 0 6.102 2.18 6.102 6.538 0-4.358 2.034-6.538 6.102-6.538zM31 10.5c-5.333 0-8-2.833-8-8.5 0 5.667-2.667 8.5-8 8.5 5.333 0 8 2.833 8 8.5 0-5.667 2.667-8.5 8-8.5zM92.273 2.744l.446-.895h-.002l-.444.895zm28.591 14.252l-.446.895h.002l.444-.895zm3.967 6.377h1-1zm0 33.953h1-1zm-3.967 6.378l-.444-.897-.002.002.446.895zm-28.59 14.25l-.447-.894.446.895zm-6.398 0l.446-.894-.446.895zm-28.591-14.25l-.449.893.003.002.446-.895zm-3.931-6.413l1 .007v-.007h-1zm0-33.918h-1 1zm3.967-6.378l.444.897.002-.002-.446-.895zm28.59-14.25l-.443-.897-.002.001.446.895zM89.093 2v1-1zM54.944 18.63a1 1 0 10-.892 1.79l.892-1.79zm69.191 1.79a1 1 0 00-.892-1.79l.892 1.79zM88.093 78.667a1 1 0 002 0h-2zM71.668 9.153a1 1 0 10-.892 1.79l.892-1.79zm34.847 19.604a1 1 0 10.892-1.79l-.892 1.79zM91.827 3.639l28.591 14.252.892-1.79L92.72 1.848l-.893 1.79zm28.593 14.253a6.135 6.135 0 012.489 2.258l1.698-1.057a8.133 8.133 0 00-3.299-2.994l-.888 1.793zm2.489 2.258c.602.968.922 2.085.922 3.223h2a8.095 8.095 0 00-1.224-4.28l-1.698 1.057zm.922 3.223v33.953h2V23.373h-2zm0 33.953c0 1.139-.32 2.255-.922 3.223l1.698 1.057a8.095 8.095 0 001.224-4.28h-2zm-.922 3.223a6.135 6.135 0 01-2.489 2.258l.888 1.793a8.14 8.14 0 003.299-2.994l-1.698-1.057zm-2.491 2.26l-28.59 14.25.891 1.79L121.31 64.6l-.892-1.79zm-28.591 14.25a6.165 6.165 0 01-2.752.649v2a8.166 8.166 0 003.645-.858l-.893-1.79zm-2.752.649a6.166 6.166 0 01-2.753-.648l-.892 1.79a8.165 8.165 0 003.645.858v-2zm-2.753-.648l-28.59-14.251-.893 1.79 28.59 14.25.893-1.79zM57.734 62.81a6.14 6.14 0 01-2.48-2.277l-1.704 1.045a8.14 8.14 0 003.286 3.02l.898-1.788zm-2.48-2.277a6.108 6.108 0 01-.9-3.236l-2-.013a8.109 8.109 0 001.196 4.294l1.705-1.045zm-.9-3.242V23.373h-2V57.29h2zm0-33.918c0-1.139.32-2.255.922-3.223l-1.698-1.057a8.11 8.11 0 00-1.224 4.28h2zm.922-3.223a6.14 6.14 0 012.489-2.258l-.888-1.793a8.14 8.14 0 00-3.3 2.994l1.699 1.057zm2.49-2.26L86.359 3.64l-.892-1.79L56.875 16.1l.892 1.79zm28.59-14.25A6.166 6.166 0 0189.093 3V1c-1.258 0-2.499.29-3.625.848l.888 1.792zM89.093 3c.95 0 1.886.22 2.736.64l.888-1.792A8.166 8.166 0 0089.093 1v2zM54.05 20.42l34.595 17.244.893-1.79L54.943 18.63l-.892 1.79zM89.54 37.664l34.595-17.244-.892-1.79-34.596 17.244.893 1.79zm.553 41.003V36.77h-2v41.898h2zM70.778 10.943l35.739 17.814.892-1.79L71.669 9.153l-.892 1.79z" fill="#000"/></svg>