<?xml version="1.0" encoding="utf-8"?><svg width="166" height="116" fill="none" xmlns="http://www.w3.org/2000/svg" viewBox="0 0 166 116"><path d="M147.314 91.571c0-.236-.11-.447-.265-.62l-15.35-32.527c-.034-.069-.101-.105-.145-.162-.025-.037-.055-.064-.084-.096-.074-.073-.139-.143-.231-.191a1.061 1.061 0 00-.4-.128l-33.114-3.434a5.318 5.318 0 00-4.302-4.738v-3.776c1.782-.427 3.115-2.002 3.115-3.89 0-2.21-1.822-4.009-4.064-4.009-2.24 0-4.062 1.8-4.062 4.01 0 1.832 1.26 3.364 2.964 3.842v3.821a5.34 5.34 0 00-4.09 3.652L54.174 49.89c-.014-.002-.025.003-.04.003-.014 0-.021-.007-.034-.007-.023 0-.04.015-.058.017a.977.977 0 00-.947.729L37.678 83.143c-.116.196-.196.41-.196.626v.01c.082 8.919 7.507 16.174 16.547 16.174 9.08 0 16.536-7.255 16.615-16.174 0-.017-.01-.05-.013-.072.002-.032.013-.06.013-.09 0-.237-.108-.446-.263-.619L55.797 52.097l31.279 3.245c.127 1.436.803 2.754 1.933 3.657v45.077h-8.597v4.739H77.35v6.765h30.095v-6.765h-3.064v-4.739h-8.595V58.994a5.203 5.203 0 001.744-2.57l31.696 3.289-14.895 31.412c-.109.19-.182.393-.182.598 0 .002.002.002.002.003l-.002.004c.079 8.917 7.505 16.172 16.547 16.172 9.078 0 16.533-7.255 16.615-16.172 0-.019-.011-.05-.014-.073.005-.026.016-.057.016-.087l.001.001zm-56.851-49.56c0-1.096.903-1.985 2.011-1.985 1.11 0 2.013.891 2.013 1.985s-.905 1.987-2.013 1.987c-1.11 0-2.011-.893-2.011-1.987zM54.029 97.926c-7.624 0-13.937-5.891-14.464-13.3h28.998c-.53 7.411-6.872 13.3-14.534 13.3zM40.197 82.603L54.1 53.291l13.839 29.312h-27.74zm62.134 23.497v4.739h3.064v2.716H79.403v-2.716h3.062V106.1h8.595V57.93l-.466-.3a3.292 3.292 0 01-1.518-2.754c0-1.81 1.49-3.281 3.323-3.281s3.323 1.471 3.323 3.282c0 .063.008.146-.029.34a3.243 3.243 0 01-1.488 2.411l-.468.299v48.168l8.594.001v.004zm28.438-44.854l13.837 29.314h-27.74l13.903-29.314zm-.069 44.637c-7.625 0-13.935-5.89-14.465-13.297h28.998c-.53 7.408-6.872 13.297-14.532 13.297h-.001zM153.15 13.511c-8.716 0-13.075-4.504-13.075-13.511 0 9.007-4.358 13.511-13.075 13.511 8.713 0 13.071 4.5 13.075 13.498.004-8.999 4.363-13.498 13.075-13.498zM165.62 37.546c-4.066 0-6.1-2.177-6.102-6.53-.002 4.353-2.036 6.53-6.102 6.53 4.068 0 6.102 2.18 6.102 6.538 0-4.358 2.034-6.538 6.102-6.538zM20.049 88.104c-6.683 0-10.024-3.632-10.024-10.896 0 7.264-3.342 10.896-10.025 10.896 6.683 0 10.024 3.632 10.024 10.896 0-7.264 3.342-10.896 10.025-10.896z" fill="#000"/></svg>