<?xml version="1.0" encoding="utf-8"?><svg viewBox="0 0 883 624" xmlns="http://www.w3.org/2000/svg" xmlns:xlink="http://www.w3.org/1999/xlink"><style>:root>svg{display:none}:root>svg:target{display:block}</style><svg fill="none" viewBox="0 0 43 43" id="icon_calc-freelance" xmlns="http://www.w3.org/2000/svg"><path d="M21.832 41c10.953 0 19.832-8.954 19.832-20S32.784 1 21.832 1m0 40C10.879 41 2 32.046 2 21m19.832 20c5.57 0 10.084-8.954 10.084-20S27.401 1 21.832 1m0 40c-5.57 0-10.084-8.954-10.084-20S16.263 1 21.832 1M2 21C2 9.954 10.88 1 21.832 1M2 21h40M9.395 5.237s13.165 6.102 24.874 0m0 31.526s-13.165-6.102-24.874 0" stroke="#000" stroke-width="2"/></svg><svg fill="none" viewBox="0 0 43 43" id="icon_calc-staff" xmlns="http://www.w3.org/2000/svg"><path d="M41 22c0 11.046-8.954 20-20 20S1 33.046 1 22 9.954 2 21 2s20 8.954 20 20z" stroke="#000" stroke-width="2"/><path d="M27.78 22a6.78 6.78 0 11-13.56 0 6.78 6.78 0 0113.56 0z" stroke="#000" stroke-width="2"/><path d="M34.56 22c0 7.489-6.071 13.56-13.56 13.56-7.489 0-13.56-6.071-13.56-13.56 0-7.489 6.071-13.56 13.56-13.56 7.489 0 13.56 6.071 13.56 13.56z" stroke="#000" stroke-width="2"/></svg><svg fill="none" viewBox="0 0 43 43" id="icon_calc-star" xmlns="http://www.w3.org/2000/svg"><g clip-path="url(#cclip0_242_39)"><path d="M21.5 3l3.7 12.091 12.322-2.841L28.9 21.5l8.622 9.25L25.2 27.909 21.5 40l-3.7-12.091L5.479 30.75 14.1 21.5l-8.621-9.25L17.8 15.091 21.5 3z" stroke="#fff" stroke-width="2"/></g><defs><clipPath id="cclip0_242_39"><path fill="#fff" d="M0 0h43v43H0z"/></clipPath></defs></svg><svg fill="none" viewBox="0 0 18 20" id="icon_calendar" xmlns="http://www.w3.org/2000/svg"><path fill-rule="evenodd" clip-rule="evenodd" d="M13.41.769l.002.75c2.754.215 4.574 2.092 4.577 4.97L18 14.917c.004 3.138-1.968 5.069-5.128 5.074l-7.72.01c-3.14.004-5.137-1.973-5.141-5.12L0 6.553c-.004-2.898 1.752-4.77 4.506-5.023V.78a.746.746 0 01.758-.77.747.747 0 01.762.769v.7l5.865-.009v-.7A.747.747 0 0112.65 0a.753.753 0 01.76.769zM1.522 6.862l14.949-.02v-.35c-.043-2.15-1.121-3.277-3.056-3.445v.77c0 .43-.334.77-.758.77a.752.752 0 01-.762-.768v-.81l-5.865.008v.81c0 .43-.324.77-.759.77a.752.752 0 01-.76-.769l-.002-.77c-1.925.193-2.99 1.325-2.988 3.493l.001.31zm10.719 4.542v.011c.01.46.385.809.84.799a.823.823 0 00.789-.852.83.83 0 00-.82-.797.828.828 0 00-.81.84zm.815 4.488a.848.848 0 01-.821-.848.833.833 0 01.809-.852h.01c.463 0 .84.379.84.848a.844.844 0 01-.838.852zM8.172 11.42c.02.46.396.819.85.799a.823.823 0 00.78-.86.816.816 0 00-.821-.8c-.454.02-.81.402-.809.861zm.854 4.427a.823.823 0 01-.85-.798c0-.46.355-.84.809-.861a.815.815 0 01.82.797c.02.461-.335.841-.779.862zm-4.922-4.392c.02.46.396.82.85.799.445-.02.8-.4.778-.86a.815.815 0 00-.82-.8.852.852 0 00-.808.861zm.854 4.397a.822.822 0 01-.85-.799.853.853 0 01.809-.86.815.815 0 01.82.799c.021.46-.333.84-.779.86z" fill="currentColor"/></svg><svg fill="none" viewBox="0 0 39 38" id="icon_fb" xmlns="http://www.w3.org/2000/svg"><path d="M19.14 38c10.494 0 19-8.507 19-19s-8.506-19-19-19C8.648 0 .14 8.507.14 19s8.507 19 19 19z" fill="currentColor"/><path d="M22.766 18.936h-2.889v10.6h-4.39v-10.6h-2.08V15.21h2.08v-2.397c0-1.733.809-4.42 4.42-4.42h3.234v3.61h-2.368c-.376 0-.924.203-.924 1.012v2.195h3.263l-.346 3.726z" fill="#fff"/></svg><svg fill="none" viewBox="0 0 38 38" id="icon_ig" xmlns="http://www.w3.org/2000/svg"><circle cx="19" cy="19" r="19" fill="currentColor"/><path d="M23.517 29.359h-9.034a5.973 5.973 0 01-5.965-5.966V14.36a5.973 5.973 0 015.965-5.965h9.034a5.973 5.973 0 015.966 5.965v9.034c0 3.282-2.684 5.966-5.966 5.966zm-9.034-19.172a4.179 4.179 0 00-4.172 4.172v9.034a4.179 4.179 0 004.172 4.172h9.034a4.179 4.179 0 004.172-4.172V14.36a4.179 4.179 0 00-4.172-4.172h-9.034z" fill="#fff"/><path d="M19 24.244a5.37 5.37 0 01-5.367-5.368A5.37 5.37 0 0119 13.51a5.37 5.37 0 015.368 5.367c0 2.95-2.418 5.368-5.368 5.368zm0-8.942a3.575 3.575 0 000 7.148 3.584 3.584 0 003.574-3.574A3.584 3.584 0 0019 15.302zM25.882 13.19c0 .718-.571 1.289-1.289 1.289a1.282 1.282 0 01-1.288-1.289c0-.717.571-1.289 1.288-1.289a1.29 1.29 0 011.29 1.29z" fill="#fff"/></svg><svg fill="none" viewBox="0 0 160 73" id="icon_logo" xmlns="http://www.w3.org/2000/svg"><path d="M0 46.455h6.956V9.154H.382V0h17.35v46.455h6.956v9.23H0v-9.23zM49.06 56.829c-3.974 0-7.49-.865-10.548-2.594-3.006-1.729-5.35-4.144-7.032-7.246-1.681-3.153-2.522-6.79-2.522-10.908 0-4.12.815-7.73 2.446-10.832 1.682-3.153 4.025-5.594 7.032-7.323 3.057-1.73 6.573-2.594 10.548-2.594 3.974 0 7.465.865 10.471 2.594 3.058 1.678 5.402 4.068 7.032 7.17 1.682 3.102 2.523 6.687 2.523 10.756 0 4.119-.841 7.78-2.523 10.984-1.63 3.153-3.974 5.62-7.031 7.4-3.007 1.728-6.472 2.593-10.396 2.593zm-.076-9.306c2.752 0 4.943-1.043 6.573-3.128 1.682-2.136 2.523-4.933 2.523-8.39 0-3.459-.841-6.205-2.523-8.24-1.63-2.084-3.821-3.127-6.573-3.127-2.752 0-4.968 1.043-6.65 3.128-1.63 2.034-2.446 4.78-2.446 8.238 0 3.458.816 6.255 2.446 8.391 1.682 2.085 3.898 3.127 6.65 3.127zM90.51 73c-4.536 0-8.969-.585-13.3-1.754l2.064-9.46c4.891 1.425 8.968 2.137 12.23 2.137 2.598 0 4.585-.407 5.961-1.22 1.427-.815 2.42-2.086 2.981-3.815.611-1.729.968-4.093 1.07-7.094h-.229c-1.427 1.628-3.083 2.873-4.969 3.738-1.885.864-3.949 1.297-6.19 1.297-4.485 0-8-1.678-10.549-5.035-2.497-3.407-3.745-8.111-3.745-14.112 0-7.272 1.86-12.815 5.58-16.629 3.77-3.814 9.146-5.72 16.127-5.72 4.026 0 8.816.61 14.37 1.83.102 10.476.153 18.358.153 23.647 0 4.73-.025 8.289-.076 10.679-.102 7.221-1.937 12.612-5.504 16.171-3.516 3.56-8.84 5.34-15.974 5.34zm2.445-25.554c1.58 0 3.083-.585 4.51-1.754 1.478-1.17 2.777-2.823 3.898-4.959l-.076-15.332c-1.682-.457-3.312-.686-4.892-.686-3.21 0-5.656 1.042-7.338 3.127-1.63 2.085-2.446 5.111-2.446 9.078 0 3.305.535 5.898 1.605 7.78 1.122 1.83 2.701 2.746 4.74 2.746zM140.051 56.829c-3.975 0-7.491-.865-10.548-2.594-3.007-1.729-5.351-4.144-7.032-7.246-1.682-3.153-2.523-6.79-2.523-10.908 0-4.12.816-7.73 2.446-10.832 1.682-3.153 4.026-5.594 7.032-7.323 3.057-1.73 6.573-2.594 10.548-2.594 3.975 0 7.465.865 10.472 2.594 3.057 1.678 5.401 4.068 7.032 7.17 1.681 3.102 2.522 6.687 2.522 10.756 0 4.119-.841 7.78-2.522 10.984-1.631 3.153-3.975 5.62-7.032 7.4-3.007 1.728-6.472 2.593-10.395 2.593zm-.077-9.306c2.752 0 4.943-1.043 6.573-3.128 1.682-2.136 2.523-4.933 2.523-8.39 0-3.459-.841-6.205-2.523-8.24-1.63-2.084-3.821-3.127-6.573-3.127-2.752 0-4.968 1.043-6.65 3.128-1.63 2.034-2.446 4.78-2.446 8.238 0 3.458.816 6.255 2.446 8.391 1.682 2.085 3.898 3.127 6.65 3.127z" fill="#3B3738"/></svg><svg fill="none" viewBox="0 0 883 624" id="icon_main-ban" xmlns="http://www.w3.org/2000/svg"><path class="hcircle" d="M588.844 323c0 27.528-22.316 49.844-49.844 49.844-27.528 0-49.844-22.316-49.844-49.844 0-27.528 22.316-49.844 49.844-49.844 27.528 0 49.844 22.316 49.844 49.844z" stroke="#D8C3A4" stroke-width="3"/><path class="hcircle" d="M638.688 323c0 55.056-44.632 99.688-99.688 99.688-55.056 0-99.688-44.632-99.688-99.688 0-55.056 44.632-99.688 99.688-99.688 55.056 0 99.688 44.632 99.688 99.688z" stroke="#D8C3A4" stroke-width="3"/><path class="hcircle" d="M688.531 323c0 82.584-66.947 149.531-149.531 149.531S389.469 405.584 389.469 323 456.416 173.469 539 173.469 688.531 240.416 688.531 323z" stroke="#D8C3A4" stroke-width="3"/><path class="hcircle" d="M738.375 323c0 110.112-89.263 199.375-199.375 199.375S339.625 433.112 339.625 323 428.888 123.625 539 123.625 738.375 212.888 738.375 323z" stroke="#D8C3A4" stroke-width="3"/><path class="hcircle" d="M788.219 323c0 137.64-111.579 249.219-249.219 249.219S289.781 460.64 289.781 323 401.36 73.781 539 73.781 788.219 185.36 788.219 323z" stroke="#D8C3A4" stroke-width="3"/><path class="hcircle" d="M833.078 323c0 162.415-131.663 294.078-294.078 294.078-162.415 0-294.078-131.663-294.078-294.078 0-162.415 131.663-294.078 294.078-294.078 162.415 0 294.078 131.663 294.078 294.078z" stroke="#D8C3A4" stroke-width="3"/><path class="hcircle" d="M560 323c-14 0-21-7-21-21 0 14-7 21-21 21 14 0 21 7 21 21 0-14 7-21 21-21z" fill="#D8C3A4"/><path class="hstar" d="M137 473c-30 0-45-15.333-45-46 0 30.667-15 46-45 46 30 0 45 15.333 45 46 0-30.667 15-46 45-46z" fill="#E93A3F"/><path class="hstar" d="M849 6l6.8 22.222L878.445 23 862.6 40l15.845 17-22.645-5.222L849 74l-6.8-22.222L819.555 57 835.4 40l-15.845-17 22.645 5.222L849 6z" stroke="#E93A3F" stroke-width="3"/><path class="hstar" d="M17 514v.009c.003 11.661 5.67 17.491 17 17.491-11.333 0-17 5.833-17 17.5 0-11.667-5.667-17.5-17-17.5 11.33 0 16.997-5.83 17-17.491V514z" fill="#D8C3A4"/></svg><svg fill="none" viewBox="0 0 230 93" id="icon_partner" xmlns="http://www.w3.org/2000/svg"><path fill="#fff" d="M0 0h230v93H0z"/><path d="M47.968 31.36c.773-.027 2.24-.04 4.4-.04 2.187 0 3.667.013 4.44.04 2.747.053 4.907.787 6.48 2.2 1.573 1.413 2.36 3.373 2.36 5.88 0 1.787-.4 3.373-1.2 4.76-.8 1.36-1.933 2.413-3.4 3.16-1.44.747-3.08 1.12-4.92 1.12h-2.6V58h-5.56V31.36zm7.92 12.4c1.307 0 2.32-.373 3.04-1.12.747-.747 1.12-1.76 1.12-3.04 0-2.347-1.293-3.52-3.88-3.52h-2.64v7.68h2.36zM75.134 58.6c-2.133 0-3.826-.907-5.08-2.72-1.253-1.813-1.88-4.28-1.88-7.4 0-3.787.96-6.667 2.88-8.64 1.92-2 4.68-3 8.28-3 2.027 0 4.4.32 7.12.96V58h-5.36l.12-3.28h-.16c-.693 1.253-1.546 2.213-2.56 2.88-.986.667-2.106 1-3.36 1zm1.2-4.92c.827 0 1.64-.44 2.44-1.32.8-.88 1.547-2.053 2.24-3.52v-6.72a9.417 9.417 0 00-2.56-.36c-1.6 0-2.813.547-3.64 1.64-.8 1.093-1.2 2.707-1.2 4.84 0 1.68.24 3.013.72 4 .48.96 1.147 1.44 2 1.44zM91.951 37.4h5.64v3.36h.32c.773-1.36 1.533-2.36 2.279-3 .774-.64 1.734-.96 2.88-.96.48 0 .88.053 1.2.16l-.6 6.08c-.693-.187-1.253-.28-1.68-.28-.613 0-1.16.12-1.64.36-.453.24-.866.56-1.24.96-.346.4-.853 1.013-1.52 1.84V58h-5.64V37.4zm24.002 21.2c-1.92 0-3.413-.48-4.48-1.44-1.04-.987-1.56-2.373-1.56-4.16V42.24h-3.2V37.4h3.2V33a69.96 69.96 0 015.6-.72v5.12h5.2v4.84h-5.2v9.72c0 .56.16.987.48 1.28.347.293.827.44 1.44.44.747 0 1.6-.173 2.56-.52l1.24 4.24c-1.707.8-3.467 1.2-5.28 1.2zm9.276-21.2h5.52v3.56c.853-1.413 1.84-2.453 2.96-3.12 1.12-.667 2.427-1 3.92-1 2.213 0 3.947.667 5.2 2 1.253 1.307 1.88 3.133 1.88 5.48V58h-5.64V45.2c0-1.067-.267-1.893-.8-2.48-.533-.613-1.253-.92-2.16-.92-1.067 0-2.08.4-3.04 1.2-.96.8-1.693 1.813-2.2 3.04V58h-5.64V37.4zm34.407 21.2c-3.333 0-5.96-.96-7.88-2.88-1.893-1.92-2.84-4.587-2.84-8 0-2.213.414-4.133 1.24-5.76.827-1.653 1.987-2.92 3.48-3.8 1.52-.88 3.294-1.32 5.32-1.32 2.987 0 5.28.96 6.88 2.88 1.6 1.92 2.4 4.693 2.4 8.32 0 .613-.013 1.067-.04 1.36h-13.6c.267 1.413.88 2.493 1.84 3.24.96.72 2.254 1.08 3.88 1.08.987 0 2.014-.12 3.08-.36 1.067-.267 2-.613 2.8-1.04l.92 4.52c-1.066.56-2.253.987-3.56 1.28-1.28.32-2.586.48-3.92.48zm3.2-13.44c-.08-1.147-.48-2.053-1.2-2.72-.72-.693-1.68-1.04-2.88-1.04-1.146 0-2.093.333-2.84 1-.72.667-1.173 1.587-1.36 2.76h8.28zm9.739-7.76h5.64v3.36h.32c.774-1.36 1.534-2.36 2.28-3 .774-.64 1.734-.96 2.88-.96.48 0 .88.053 1.2.16l-.6 6.08c-.693-.187-1.253-.28-1.68-.28-.613 0-1.16.12-1.64.36-.453.24-.866.56-1.24.96a76.01 76.01 0 00-1.52 1.84V58h-5.64V37.4z" fill="#EADACB"/></svg><svg fill="none" viewBox="0 0 37 37" id="icon_phone" xmlns="http://www.w3.org/2000/svg"><path d="M11.654 13.375l1.997-1.994a1.29 1.29 0 011.83 0l2.15 2.146a1.294 1.294 0 010 1.834l-1.68 1.681a7.603 7.603 0 001.62 2.387 7.618 7.618 0 002.386 1.623l1.68-1.681a1.29 1.29 0 011.83 0l2.152 2.146a1.294 1.294 0 010 1.834l-1.995 1.995a2.245 2.245 0 01-1.938.624c-2.483-.409-4.947-1.73-6.936-3.718-1.988-1.99-3.308-4.454-3.72-6.938a2.235 2.235 0 01.624-1.939zm.705 1.716c.366 2.21 1.555 4.415 3.345 6.205 1.791 1.79 3.994 2.98 6.205 3.345a.882.882 0 00.765-.248l1.96-1.959-2.078-2.079-2.247 2.25-.017.017-.405-.15a9.023 9.023 0 01-5.356-5.358l-.15-.405 2.265-2.263-2.078-2.08-1.96 1.96a.878.878 0 00-.249.765z" fill="currentColor"/><circle cx="18.5" cy="18.5" r="18" stroke="currentColor"/></svg><svg fill="none" viewBox="0 0 38 38" id="icon_tt" xmlns="http://www.w3.org/2000/svg"><circle cx="19" cy="19" r="19" fill="currentColor"/><path fill-rule="evenodd" clip-rule="evenodd" d="M29.794 11.91a8.97 8.97 0 01-2.568.702 4.471 4.471 0 001.963-2.474 8.957 8.957 0 01-2.838 1.086 4.472 4.472 0 00-7.618 4.077 12.685 12.685 0 01-9.215-4.672 4.457 4.457 0 00-.604 2.246c0 1.551.79 2.92 1.99 3.72a4.46 4.46 0 01-2.026-.56v.056a4.472 4.472 0 003.586 4.383 4.529 4.529 0 01-2.019.075 4.477 4.477 0 004.175 3.105 8.968 8.968 0 01-5.554 1.915c-.36 0-.715-.023-1.066-.062a12.653 12.653 0 006.854 2.01c8.223 0 12.72-6.812 12.72-12.72 0-.195-.004-.387-.014-.579a9.044 9.044 0 002.23-2.315l.004.007z" fill="#fff"/></svg><svg fill="none" viewBox="0 0 812 500" id="join-club" xmlns="http://www.w3.org/2000/svg"><g clip-path="url(#lclip0_242_218)"><path d="M812 249.895c0 137.984-112.153 249.843-250.5 249.843-138.347 0-250.5-111.859-250.5-249.843C311 111.911 423.153.052 561.5.052 699.847.052 812 111.911 812 249.895z" stroke="#000"/><path d="M603.958 249.895c0 23.387-19.009 42.346-42.458 42.346-23.449 0-42.458-18.959-42.458-42.346 0-23.387 19.009-42.346 42.458-42.346 23.449 0 42.458 18.959 42.458 42.346z" stroke="#000"/><path d="M646.415 249.895c0 46.774-38.018 84.692-84.915 84.692-46.897 0-84.915-37.918-84.915-84.692 0-46.774 38.018-84.692 84.915-84.692 46.897 0 84.915 37.918 84.915 84.692z" stroke="#000"/><path d="M688.873 249.895c0 70.161-57.027 127.039-127.373 127.039s-127.373-56.878-127.373-127.039S491.154 122.856 561.5 122.856s127.373 56.878 127.373 127.039z" stroke="#000"/><path d="M731.331 249.895c0 93.549-76.036 169.385-169.831 169.385-93.795 0-169.831-75.836-169.831-169.385 0-93.549 76.036-169.385 169.831-169.385 93.795 0 169.831 75.836 169.831 169.385z" stroke="#000"/><path d="M773.788 249.895c0 116.936-95.044 211.731-212.288 211.731-117.243 0-212.288-94.795-212.288-211.731 0-116.936 95.045-211.73 212.288-211.73 117.244 0 212.288 94.794 212.288 211.73z" stroke="#000"/><path d="M224 127.717c-5.333 0-8-2.66-8-7.979 0 5.319-2.667 7.979-8 7.979 5.333 0 8 2.659 8 7.979 0-5.32 2.667-7.979 8-7.979zM203 99c-15.333 0-23-7.667-23-23 0 15.333-7.667 23-23 23 15.33 0 22.996 7.663 23 22.989.004-15.326 7.67-22.989 23-22.989z" fill="#000"/><path fill-rule="evenodd" clip-rule="evenodd" d="M7.491 286.488c2.327 1.021 6.115 3.897 11.307 9.119.27.205.646.276.854.008.208-.268.282-.638.011-.844-5.328-5.324-9.132-8.319-11.713-9.427-1.29-.553-2.415-.768-3.326-.287-.912.48-1.266 1.489-1.366 2.586-.1 1.097.087 2.517.56 4.262a78.248 78.248 0 001.84 5.659c1.637 4.121 4.117 9.095 7.092 14.125 5.95 10.059 14.106 21.155 22.38 28.502 4.136 3.674 8.403 6.488 12.483 7.882 4.081 1.393 8.08 1.232 11.558-1.029 6.838-4.506 7.728-12.569 5.484-21.306-.275-1.168-.67-2.321-1.08-3.592 3.211 1.266 6.345 1.941 9.25 1.802 2.65-.226 4.967-1.131 7.04-2.967 1.953-1.82 3.678-4.454 4.664-8.075 1.372-4.393 1.38-8.97.654-13.571 3.013.69 6.054.654 8.641-.045 4.114-1.14 7.364-4.213 8.762-9.333.898-3.368.806-6.848-.004-10.234 3.113-.407 5.483-2.763 6.902-6.802 1.418-4.038 1.854-9.995.916-18.06l3.112 2.363c.271.205.63.158.838-.11a.571.571 0 00-.109-.828l-4.329-3.288a.588.588 0 00-.838.11l-3.334 4.288a.573.573 0 00.108.829c.271.205.63.159.839-.11l2.396-3.082c.907 7.828.455 13.667-.874 17.453-1.33 3.786-3.523 5.638-6.038 5.966-.441-1.507-.987-2.881-1.548-4.373-2.241-5.005-5.784-9.72-9.17-13.251a39.173 39.173 0 00-4.98-4.527c-1.488-1.13-2.945-2.023-4.085-2.356-.51-.174-1.14-.332-1.62-.27-.478.063-.926.362-1.223.883-.177.504-.235.993-.022 1.688.078.592.426 1.389.79 2.305 3.208 6.805 6.948 12.096 10.71 15.699 3.49 3.397 7.035 5.342 10.315 5.275.794 3.267.99 6.613.077 9.863-1.309 4.867-4.247 7.539-7.897 8.497-2.468.684-5.404.586-8.538-.089-.566-2.454-1.251-4.893-2.296-7.285-2.896-7.208-7.421-13.841-11.968-18.786-2.274-2.472-4.62-4.574-6.65-6.114-2.149-1.526-4.116-2.593-5.615-2.879-.75-.143-1.604-.152-2.171.163-.688.331-1.104.867-1.37 1.624-.548 1.396-.252 3.645.75 6.645 4.163 12.219 14.335 21.968 24.27 26.209 1.411.538 2.822 1.076 4.201 1.377.846 4.586.838 9.162-.534 13.556-1.001 3.502-2.518 5.868-4.367 7.554-1.864 1.568-3.942 2.442-6.353 2.636-2.889.257-6.158-.52-9.655-2.11-2.687-7.475-7.113-15.205-11.924-22.162-5.868-8.505-12.418-15.717-17.033-19.328-1.098-.94-2.165-1.644-3.065-2.008-.9-.364-1.786-.609-2.489-.397-.807.346-1.192 1.119-1.203 1.963.004.963.16 2.147.721 3.639 3.939 12.369 15.737 27.082 27.654 35.279 2.15 1.525 4.387 2.798 6.459 3.731.56 1.492 1.002 3 1.324 4.523 2.229 8.619 1.246 15.972-5.04 20.044-3.151 1.977-6.655 2.194-10.48.888-3.826-1.306-7.958-4.017-12.08-7.573-8.137-7.245-16.262-18.104-22.227-28.281-2.975-5.03-5.44-9.886-7.077-14.006-.879-2.053-1.487-3.9-1.809-5.423a13.141 13.141 0 01-.497-3.788c.115-.979.427-1.381.771-1.546.36-.047 1.093-.022 2.264.547zm54.065 33.273c-1.697-.862-3.424-1.961-5.167-3.178-11.766-7.975-23.43-22.586-27.202-34.615-.442-1.508-.701-2.558-.675-3.284.027-.726.25-.875.37-.891.24-.031.719-.094 1.5.286.78.38 1.712.98 2.93 1.905 4.48 3.508 10.894 10.617 16.762 19.122 4.63 6.499 8.738 13.669 11.482 20.655zm22.06-22.148c-1.14-.332-2.28-.665-3.45-1.234-9.546-4.051-19.567-13.579-23.563-25.459-1.003-2.999-1.132-4.909-.777-5.919.177-.504.385-.772.729-.938.344-.165.823-.228 1.453-.069 1.379.301 3.075 1.163 5.105 2.704 2.03 1.541 4.24 3.54 6.514 6.012 4.547 4.945 8.937 11.476 11.802 18.446.998 2.037 1.772 4.224 2.188 6.457zm17.342-19.123c-2.696-.129-5.834-1.766-9.055-4.957-3.627-3.5-7.231-8.688-10.424-15.375-.348-.797-.68-1.476-.758-2.068-.078-.592-.11-.829-.005-.963-.016-.118.104-.134.224-.15.24-.031.494.056 1.004.23.9.364 2.207 1.036 3.695 2.167 1.489 1.13 3.143 2.599 4.829 4.305 3.387 3.531 6.778 8.025 8.884 12.927.65 1.24 1.18 2.495 1.606 3.884z" fill="#000"/></g><defs><clipPath id="lclip0_242_218"><path fill="#fff" d="M0 0h812v500H0z"/></clipPath></defs></svg><svg fill="none" viewBox="0 0 200 125" id="request-decor" xmlns="http://www.w3.org/2000/svg"><path fill-rule="evenodd" clip-rule="evenodd" d="M12.017 65.688c2.833-.823 7.63-3.565 14.402-8.798.343-.196.785-.221.984.12.199.34.226.78-.116.976-6.943 5.33-11.777 8.207-14.916 9.092-1.57.442-2.897.518-3.872-.175-.975-.693-1.229-1.911-1.176-3.192.053-1.28.484-2.89 1.294-4.83a91.305 91.305 0 012.98-6.25c2.514-4.505 6.127-9.865 10.318-15.215 8.38-10.699 19.46-22.257 30.1-29.475 5.32-3.608 10.66-6.205 15.567-7.191 4.908-.986 9.484-.192 13.142 2.946 7.18 6.239 6.973 15.676 3.058 25.415-.495 1.305-1.125 2.575-1.792 3.978 3.889-.971 7.597-1.272 10.918-.67 3.015.664 5.543 2.06 7.648 4.495 1.97 2.397 3.552 5.698 4.134 10.025.908 5.277.219 10.558-1.319 15.755 3.573-.337 7.066.168 9.936 1.368 4.559 1.941 7.83 5.982 8.657 12.1.519 4.023-.118 8.024-1.567 11.807 3.521.943 5.888 4.022 6.904 8.897 1.015 4.875.607 11.813-1.703 20.975l3.941-2.252a.682.682 0 01.948.254.667.667 0 01-.251.939l-5.484 3.134a.68.68 0 01-.947-.254l-3.182-5.455a.668.668 0 01.251-.94.682.682 0 01.948.254l2.287 3.921c2.238-8.893 2.61-15.697 1.658-20.268-.952-4.57-3.193-7.04-6.036-7.802-.738 1.672-1.576 3.174-2.45 4.81-3.342 5.433-8.137 10.332-12.574 13.89-2.236 1.846-4.364 3.29-6.42 4.465-1.885 1.077-3.698 1.886-5.06 2.096-.614.123-1.362.21-1.904.065-.542-.145-1.011-.559-1.274-1.204-.127-.61-.118-1.183.233-1.952.18-.67.702-1.537 1.26-2.538 4.73-7.363 9.842-12.897 14.72-16.48 4.535-3.388 8.91-5.092 12.674-4.516 1.413-3.648 2.149-7.478 1.594-11.367-.764-5.814-3.736-9.343-7.79-11.004-2.735-1.165-6.128-1.499-9.837-1.198-1.026 2.746-2.187 5.455-3.754 8.056-4.432 7.873-10.651 14.837-16.638 19.85-2.993 2.505-6.014 4.573-8.584 6.041-2.706 1.433-5.133 2.365-6.901 2.466-.884.051-1.868-.069-2.473-.519-.74-.486-1.138-1.168-1.329-2.082-.417-1.693.267-4.243 1.879-7.55 6.654-13.464 19.846-23.162 31.925-26.541 1.706-.407 3.411-.813 5.044-.95 1.673-5.162 2.362-10.443 1.455-15.72-.618-4.193-2.002-7.153-3.872-9.38-1.906-2.093-4.163-3.417-6.907-4.008-3.286-.736-7.166-.338-11.432.964-4.233 8.215-10.505 16.459-17.103 23.752-8.05 8.919-16.687 16.241-22.549 19.705-1.406.917-2.741 1.566-3.833 1.85-1.092.282-2.147.43-2.924.079-.875-.522-1.201-1.473-1.085-2.448.152-1.11.512-2.452 1.386-4.088 6.42-13.67 22.24-28.848 37.204-36.49 2.705-1.432 5.474-2.56 8-3.321a36.223 36.223 0 002.215-5.016c3.88-9.604 3.87-18.237-2.74-23.892-3.324-2.76-7.323-3.544-11.924-2.619-4.6.925-9.769 3.423-15.053 6.898-10.47 7.119-21.476 18.41-29.893 29.243-4.19 5.35-7.768 10.575-10.281 15.08-1.324 2.234-2.306 4.273-2.909 5.98a15.329 15.329 0 00-1.15 4.295c-.017 1.146.281 1.658.651 1.9.407.11 1.255.193 2.69-.286zm67.287-30.154c-2.084.736-4.24 1.74-6.431 2.88-14.756 7.408-30.406 22.489-36.582 35.792-.738 1.672-1.197 2.844-1.278 3.685-.08.842.155 1.048.29 1.085.27.072.812.217 1.769-.102.956-.319 2.12-.87 3.661-1.751 5.691-3.366 14.157-10.59 22.206-19.509 6.319-6.793 12.14-14.438 16.365-22.08zm22.002 28.909c-1.362.21-2.725.42-4.159.899-11.601 3.22-24.586 12.686-30.997 25.782-1.612 3.308-2.052 5.492-1.798 6.71.127.61.326.95.696 1.194.37.243.912.388 1.66.3 1.634-.137 3.717-.873 6.288-2.342 2.57-1.469 5.42-3.438 8.413-5.944 5.986-5.012 12.034-11.878 16.394-19.483 1.46-2.198 2.685-4.603 3.503-7.116zm17.035 24.7c-3.122-.26-6.983 1.15-11.176 4.342-4.707 3.485-9.646 8.921-14.34 16.15-.523.867-1.01 1.599-1.19 2.27-.179.671-.25.94-.151 1.11-.036.134.1.171.235.207.27.072.577.011 1.19-.112 1.092-.283 2.698-.86 4.583-1.937 1.884-1.077 4.013-2.521 6.213-4.232 4.436-3.558 9.024-8.226 12.195-13.561a26.021 26.021 0 002.441-4.236z" fill="#fff"/><path d="M159 31.5c-6 0-9-3.166-9-9.5 0 6.334-3 9.5-9 9.5 6 0 9 3.167 9 9.5 0-6.333 3-9.5 9-9.5zM200 66.5c-13.663 0-20.497-7.163-20.5-21.49-.003 14.327-6.837 21.49-20.5 21.49 13.667 0 20.5 7.167 20.5 21.5 0-14.333 6.833-21.5 20.5-21.5z" fill="#fff"/></svg><svg fill="none" viewBox="0 0 226 129" id="request-success" xmlns="http://www.w3.org/2000/svg"><path d="M176 78.5c0 27.338-22.162 49.5-49.5 49.5S77 105.838 77 78.5 99.162 29 126.5 29 176 51.162 176 78.5z" stroke="#fff"/><path d="M134.89 78.5a8.39 8.39 0 01-8.39 8.39 8.39 8.39 0 110-16.78 8.39 8.39 0 018.39 8.39z" stroke="#fff"/><path d="M143.28 78.5c0 9.267-7.513 16.78-16.78 16.78-9.267 0-16.78-7.513-16.78-16.78 0-9.267 7.513-16.78 16.78-16.78 9.267 0 16.78 7.513 16.78 16.78z" stroke="#fff"/><path d="M151.669 78.5c0 13.9-11.268 25.169-25.169 25.169S101.331 92.401 101.331 78.5c0-13.9 11.268-25.17 25.169-25.17s25.169 11.27 25.169 25.17z" stroke="#fff"/><path d="M160.059 78.5c0 18.534-15.025 33.559-33.559 33.559S92.94 97.034 92.94 78.5s15.026-33.56 33.56-33.56c18.534 0 33.559 15.026 33.559 33.56z" stroke="#fff"/><path d="M168.449 78.5c0 23.168-18.781 41.949-41.949 41.949S84.55 101.668 84.55 78.5s18.782-41.95 41.95-41.95c23.168 0 41.949 18.782 41.949 41.95z" stroke="#fff"/><path d="M18 9.5c-6 0-9-3.167-9-9.5 0 6.333-3 9.5-9 9.5 6 0 9 3.167 9 9.5 0-6.333 3-9.5 9-9.5zM55 39.5c-11 0-16.5-5.833-16.5-17.5 0 11.667-5.5 17.5-16.5 17.5 11 0 16.5 5.833 16.5 17.5 0-11.667 5.5-17.5 16.5-17.5zM226 36c-5 0-7.5-2.667-7.5-8 0 5.333-2.5 8-7.5 8 5 0 7.5 2.667 7.5 8 0-5.333 2.5-8 7.5-8zM183.429 18.478l5.169-1.995-4.196-3.966-1.699 5.274.726.687zm-.383-1.05l-56.909 60.229.726.686 56.91-60.229-.727-.687z" fill="#fff"/><circle cx="126.5" cy="78.5" r="3.5" fill="#fff"/></svg><svg fill="none" viewBox="0 0 165 115" id="tariff0" xmlns="http://www.w3.org/2000/svg"><path d="M140.15 97.511c-8.716 0-13.075-4.504-13.075-13.511 0 9.007-4.358 13.511-13.075 13.511 8.713 0 13.071 4.499 13.075 13.498.004-8.999 4.363-13.498 13.075-13.498zM151.854 72.17c-4.066 0-6.1-2.177-6.102-6.53-.002 4.353-2.036 6.53-6.102 6.53 4.068 0 6.102 2.18 6.102 6.538 0-4.358 2.034-6.538 6.102-6.538zM31 10.5c-5.333 0-8-2.833-8-8.5 0 5.667-2.667 8.5-8 8.5 5.333 0 8 2.833 8 8.5 0-5.667 2.667-8.5 8-8.5zM92.273 2.744l.446-.895h-.002l-.444.895zm28.591 14.252l-.446.895h.002l.444-.895zm3.967 6.377h1-1zm0 33.953h1-1zm-3.967 6.378l-.444-.897-.002.002.446.895zm-28.59 14.25l-.447-.894.446.895zm-6.398 0l.446-.894-.446.895zm-28.591-14.25l-.449.893.003.002.446-.895zm-3.931-6.413l1 .007v-.007h-1zm0-33.918h-1 1zm3.967-6.378l.444.897.002-.002-.446-.895zm28.59-14.25l-.443-.897-.002.001.446.895zM89.093 2v1-1zM54.944 18.63a1 1 0 10-.892 1.79l.892-1.79zm69.191 1.79a1 1 0 00-.892-1.79l.892 1.79zM88.093 78.667a1 1 0 002 0h-2zM71.668 9.153a1 1 0 10-.892 1.79l.892-1.79zm34.847 19.604a1 1 0 10.892-1.79l-.892 1.79zM91.827 3.639l28.591 14.252.892-1.79L92.72 1.848l-.893 1.79zm28.593 14.253a6.135 6.135 0 012.489 2.258l1.698-1.057a8.133 8.133 0 00-3.299-2.994l-.888 1.793zm2.489 2.258c.602.968.922 2.085.922 3.223h2a8.095 8.095 0 00-1.224-4.28l-1.698 1.057zm.922 3.223v33.953h2V23.373h-2zm0 33.953c0 1.139-.32 2.255-.922 3.223l1.698 1.057a8.095 8.095 0 001.224-4.28h-2zm-.922 3.223a6.135 6.135 0 01-2.489 2.258l.888 1.793a8.14 8.14 0 003.299-2.994l-1.698-1.057zm-2.491 2.26l-28.59 14.25.891 1.79L121.31 64.6l-.892-1.79zm-28.591 14.25a6.165 6.165 0 01-2.752.649v2a8.166 8.166 0 003.645-.858l-.893-1.79zm-2.752.649a6.166 6.166 0 01-2.753-.648l-.892 1.79a8.165 8.165 0 003.645.858v-2zm-2.753-.648l-28.59-14.251-.893 1.79 28.59 14.25.893-1.79zM57.734 62.81a6.14 6.14 0 01-2.48-2.277l-1.704 1.045a8.14 8.14 0 003.286 3.02l.898-1.788zm-2.48-2.277a6.108 6.108 0 01-.9-3.236l-2-.013a8.109 8.109 0 001.196 4.294l1.705-1.045zm-.9-3.242V23.373h-2V57.29h2zm0-33.918c0-1.139.32-2.255.922-3.223l-1.698-1.057a8.11 8.11 0 00-1.224 4.28h2zm.922-3.223a6.14 6.14 0 012.489-2.258l-.888-1.793a8.14 8.14 0 00-3.3 2.994l1.699 1.057zm2.49-2.26L86.359 3.64l-.892-1.79L56.875 16.1l.892 1.79zm28.59-14.25A6.166 6.166 0 0189.093 3V1c-1.258 0-2.499.29-3.625.848l.888 1.792zM89.093 3c.95 0 1.886.22 2.736.64l.888-1.792A8.166 8.166 0 0089.093 1v2zM54.05 20.42l34.595 17.244.893-1.79L54.943 18.63l-.892 1.79zM89.54 37.664l34.595-17.244-.892-1.79-34.596 17.244.893 1.79zm.553 41.003V36.77h-2v41.898h2zM70.778 10.943l35.739 17.814.892-1.79L71.669 9.153l-.892 1.79z" fill="#000"/></svg><svg fill="none" viewBox="0 0 166 116" id="tariff1" xmlns="http://www.w3.org/2000/svg"><path d="M147.314 91.571c0-.236-.11-.447-.265-.62l-15.35-32.527c-.034-.069-.101-.105-.145-.162-.025-.037-.055-.064-.084-.096-.074-.073-.139-.143-.231-.191a1.061 1.061 0 00-.4-.128l-33.114-3.434a5.318 5.318 0 00-4.302-4.738v-3.776c1.782-.427 3.115-2.002 3.115-3.89 0-2.21-1.822-4.009-4.064-4.009-2.24 0-4.062 1.8-4.062 4.01 0 1.832 1.26 3.364 2.964 3.842v3.821a5.34 5.34 0 00-4.09 3.652L54.174 49.89c-.014-.002-.025.003-.04.003-.014 0-.021-.007-.034-.007-.023 0-.04.015-.058.017a.977.977 0 00-.947.729L37.678 83.143c-.116.196-.196.41-.196.626v.01c.082 8.919 7.507 16.174 16.547 16.174 9.08 0 16.536-7.255 16.615-16.174 0-.017-.01-.05-.013-.072.002-.032.013-.06.013-.09 0-.237-.108-.446-.263-.619L55.797 52.097l31.279 3.245c.127 1.436.803 2.754 1.933 3.657v45.077h-8.597v4.739H77.35v6.765h30.095v-6.765h-3.064v-4.739h-8.595V58.994a5.203 5.203 0 001.744-2.57l31.696 3.289-14.895 31.412c-.109.19-.182.393-.182.598 0 .002.002.002.002.003l-.002.004c.079 8.917 7.505 16.172 16.547 16.172 9.078 0 16.533-7.255 16.615-16.172 0-.019-.011-.05-.014-.073.005-.026.016-.057.016-.087l.001.001zm-56.851-49.56c0-1.096.903-1.985 2.011-1.985 1.11 0 2.013.891 2.013 1.985s-.905 1.987-2.013 1.987c-1.11 0-2.011-.893-2.011-1.987zM54.029 97.926c-7.624 0-13.937-5.891-14.464-13.3h28.998c-.53 7.411-6.872 13.3-14.534 13.3zM40.197 82.603L54.1 53.291l13.839 29.312h-27.74zm62.134 23.497v4.739h3.064v2.716H79.403v-2.716h3.062V106.1h8.595V57.93l-.466-.3a3.292 3.292 0 01-1.518-2.754c0-1.81 1.49-3.281 3.323-3.281s3.323 1.471 3.323 3.282c0 .063.008.146-.029.34a3.243 3.243 0 01-1.488 2.411l-.468.299v48.168l8.594.001v.004zm28.438-44.854l13.837 29.314h-27.74l13.903-29.314zm-.069 44.637c-7.625 0-13.935-5.89-14.465-13.297h28.998c-.53 7.408-6.872 13.297-14.532 13.297h-.001zM153.15 13.511c-8.716 0-13.075-4.504-13.075-13.511 0 9.007-4.358 13.511-13.075 13.511 8.713 0 13.071 4.5 13.075 13.498.004-8.999 4.363-13.498 13.075-13.498zM165.62 37.546c-4.066 0-6.1-2.177-6.102-6.53-.002 4.353-2.036 6.53-6.102 6.53 4.068 0 6.102 2.18 6.102 6.538 0-4.358 2.034-6.538 6.102-6.538zM20.049 88.104c-6.683 0-10.024-3.632-10.024-10.896 0 7.264-3.342 10.896-10.025 10.896 6.683 0 10.024 3.632 10.024 10.896 0-7.264 3.342-10.896 10.025-10.896z" fill="#000"/></svg></svg>